<svg width="68" height="17" viewBox="0 0 68 17" fill="none" xmlns="http://www.w3.org/2000/svg">
<g clip-path="url(#clip0_960_3368)">
<rect x="58.7262" y="0.218994" width="7.19643" height="4.87875" fill="white"/>
<path d="M64.5971 0.218994H67.0365V5.09774H64.5971V0.218994ZM60.3751 2.65837L60.2344 2.70528C60.2344 2.70528 61.0788 3.40894 61.0788 3.45585C61.1257 3.50276 61.1726 3.50276 61.1257 3.6435C61.0788 3.78423 61.0318 3.92496 61.0318 3.92496C61.0318 3.92496 61.7824 3.78423 61.8762 3.73732C61.9701 3.73732 62.017 3.73732 62.017 3.83114C62.017 3.92496 61.9701 4.72245 61.9701 4.72245H62.2046C62.2046 4.72245 62.1577 3.87805 62.1577 3.83114C62.1577 3.73732 62.2046 3.73732 62.2984 3.73732C62.3923 3.73732 63.1428 3.92496 63.1428 3.92496C63.1428 3.92496 63.0959 3.73732 63.049 3.6435C63.0021 3.50276 63.049 3.50276 63.0959 3.45585C63.1428 3.40894 63.9403 2.70528 63.9403 2.70528L63.7996 2.65837C63.7058 2.61146 63.7527 2.56454 63.7527 2.51763C63.7527 2.47072 63.8934 2.00161 63.8934 2.00161C63.8934 2.00161 63.5181 2.09543 63.4712 2.09543C63.4243 2.09543 63.3774 2.09543 63.3774 2.04852C63.3774 2.00161 63.2836 1.81397 63.2836 1.81397C63.2836 1.81397 62.8614 2.28308 62.8145 2.32999C62.7206 2.42381 62.6268 2.32999 62.6737 2.23617C62.6737 2.14235 62.9083 1.15721 62.9083 1.15721C62.9083 1.15721 62.6737 1.29795 62.5799 1.34486C62.4861 1.39177 62.4392 1.39177 62.4392 1.29795C62.3923 1.20413 62.1108 0.688104 62.1108 0.641193C62.1108 0.641193 61.8293 1.20413 61.7824 1.29795C61.7355 1.39177 61.6886 1.39177 61.6417 1.34486C61.5479 1.29795 61.3133 1.15721 61.3133 1.15721C61.3133 1.15721 61.5479 2.14235 61.5479 2.23617C61.5479 2.32999 61.501 2.3769 61.4071 2.32999L60.938 1.81397C60.938 1.81397 60.8911 1.9547 60.8442 2.00161C60.8442 2.04852 60.7973 2.09543 60.7504 2.04852C60.6566 2.04852 60.2813 1.9547 60.2813 1.9547C60.2813 1.9547 60.422 2.42381 60.4689 2.47072C60.4689 2.51763 60.4689 2.61146 60.3751 2.65837ZM57.2321 0.218994H59.6714V5.09774H57.2321V0.218994Z" fill="#FF0000"/>
</g>
<path d="M67.5508 14.8556C67.3631 15.2778 66.9878 15.4186 66.7533 15.4186C66.4718 15.4186 65.6274 15.3716 65.6274 13.1668C65.6274 13.1668 65.6274 8.71028 65.6274 8.42882C65.6274 6.97458 64.5015 5.8018 61.5931 5.8018C58.45 5.8018 58.4031 7.34986 58.4031 7.72515C58.3562 8.14735 58.5908 8.61646 59.3883 8.61646C60.0919 8.61646 60.2796 7.81897 60.3734 7.53751C60.4672 7.20913 60.5141 6.27091 61.7807 6.27091C62.8597 6.27091 63.5164 7.20913 63.5633 8.56955C63.5633 8.80411 63.5633 8.94484 63.5633 9.08557C63.5633 9.17939 63.5633 9.22631 63.5633 9.32013V9.36704C63.4695 9.83615 63.235 10.0707 62.8128 10.2583C62.2498 10.5398 60.6079 10.7744 60.4203 10.8213C59.7635 10.962 57.934 11.4311 57.9809 13.3545C58.0278 15.2309 59.9043 15.8877 61.2178 15.8408C62.4844 15.7938 63.235 15.2778 63.5633 14.9964C63.751 14.8556 63.751 14.8556 63.8917 15.0433C64.0793 15.2309 64.6892 15.8408 66.1434 15.8408C67.6446 15.8408 67.8322 15.1371 67.9261 14.9025C67.973 14.7618 67.6446 14.6211 67.5508 14.8556ZM61.6869 15.3717C60.3734 15.3717 60.045 14.2927 60.045 13.7298C60.045 13.2137 60.3265 12.1348 61.64 11.3842C61.64 11.3842 62.2498 11.0089 63.4226 10.5398C63.4695 10.5398 63.5164 10.5398 63.5164 10.5398C63.5164 10.5398 63.5633 10.5867 63.5633 10.6336V10.6805V10.7275V12.6977C63.5633 14.2458 62.8128 15.3717 61.6869 15.3717ZM57.3711 15.3247C57.1834 15.2778 56.0107 15.4186 56.0107 11.8533C56.0107 8.28808 56.0107 0.641586 56.0107 0.641586C56.0107 0.500853 56.0107 0.125565 55.5885 0.125565C55.1663 0.125565 52.3516 0.266298 52.164 0.313209C51.9763 0.313209 51.8356 0.547764 52.164 0.547764C52.4923 0.594675 53.9935 0.688497 53.9935 3.17478C53.9935 4.39447 53.9935 5.61416 53.9935 6.50547C53.9935 6.55238 53.9935 6.59929 53.9935 6.59929C53.9935 6.69311 53.9935 6.74002 53.9466 6.78693C53.9466 6.78693 53.9466 6.78693 53.9466 6.83384C53.8997 6.88075 53.8527 6.83384 53.712 6.74002C53.4775 6.55238 52.3985 5.89562 51.0381 5.89562C48.8333 5.89562 46.1124 7.4906 46.1124 10.7744C46.1124 14.2927 48.5987 15.9815 51.1788 15.9815C52.4454 15.9815 53.3367 15.4186 53.6651 15.2309C54.0404 14.9964 53.9935 15.0433 54.0404 15.3717C54.0873 15.6062 54.0404 16.0753 54.6972 16.0284C55.4008 15.9346 57.0896 15.7469 57.418 15.7C57.7464 15.5593 57.6525 15.3717 57.3711 15.3247ZM51.5541 15.4655C49.49 15.4655 48.4111 13.0261 48.4111 10.6805C48.4111 8.10044 49.8653 6.36473 51.4134 6.45855C53.4306 6.59929 53.9466 8.19426 53.9935 11.0558C53.9935 11.2435 53.9935 11.4311 53.9935 11.6657C53.9466 14.4803 52.7738 15.4655 51.5541 15.4655ZM46.0655 14.8556C45.8779 15.2778 45.5026 15.4186 45.268 15.4186C44.9866 15.4186 44.1422 15.3716 44.1422 13.1668C44.1422 13.1668 44.1422 8.71028 44.1422 8.42882C44.1422 6.97458 43.0163 5.8018 40.1078 5.8018C36.9648 5.8018 36.9179 7.34986 36.9179 7.72515C36.871 8.14735 37.1055 8.61646 37.903 8.61646C38.6067 8.61646 38.7943 7.81897 38.8881 7.53751C38.982 7.20913 39.0289 6.27091 40.2955 6.27091C41.3744 6.27091 42.0781 7.20913 42.0781 8.61646V8.66337C42.0781 8.71028 42.0781 8.75719 42.0781 8.75719V8.89793C42.0781 8.94484 42.0781 9.03866 42.0781 9.08557C42.0312 9.78924 41.8435 10.0238 41.2806 10.3053C40.7177 10.5867 39.0758 10.8213 38.8881 10.8682C38.2314 11.0089 36.4019 11.478 36.4488 13.4014C36.4957 15.2778 38.3721 15.9346 39.6856 15.8877C40.9522 15.8408 41.7028 15.3247 42.0312 15.0433C42.2188 14.9025 42.2188 14.9025 42.3596 15.0902C42.5472 15.2778 43.157 15.8877 44.6113 15.8877C46.1124 15.8877 46.3001 15.184 46.3939 14.9494C46.4877 14.7618 46.2063 14.6211 46.0655 14.8556ZM40.2486 15.3717C38.935 15.3717 38.6067 14.2927 38.6067 13.7298C38.6067 13.2137 38.8881 12.1348 40.2016 11.3842C40.2016 11.3842 40.8115 11.0089 41.9843 10.5398C42.0312 10.5398 42.0781 10.5398 42.0781 10.5398V10.5867C42.0781 10.6336 42.0781 10.6805 42.0781 10.7744V10.7275C42.0781 10.7275 42.0781 10.7275 42.0781 10.7744V12.7446C42.0781 14.2458 41.3275 15.3717 40.2486 15.3717ZM35.7451 15.3247C35.3698 15.2309 34.7131 14.8087 34.7131 12.7446V8.99175C34.7131 8.10044 34.8069 5.8018 31.2886 5.8018C29.459 5.8018 28.427 6.74002 28.3332 6.78693C28.1924 6.92766 28.0986 6.97458 28.0517 6.74002C28.0048 6.55238 27.911 6.27091 27.864 6.08327C27.8171 5.94253 27.7233 5.8018 27.3949 5.84871C27.0666 5.89562 25.0025 6.224 24.6272 6.31782C24.2988 6.41164 24.3926 6.55238 24.6272 6.59929C24.8617 6.6462 25.9876 6.74002 25.9876 8.66337C25.9876 10.5867 25.9876 12.6977 25.9876 12.6977C25.9876 15.0433 25.5185 15.2309 25.0963 15.3717C24.5334 15.5124 24.8148 15.7 25.0494 15.7C25.0494 15.7 29.2245 15.7 29.3183 15.7C29.5998 15.7 29.7405 15.4186 29.1776 15.3247C28.6146 15.2309 28.0986 14.9025 28.0986 13.073C28.0986 12.8854 28.0986 10.8682 28.0986 10.4929C28.0986 9.50777 27.864 6.50547 30.5849 6.45855C32.5082 6.41164 32.6959 8.00662 32.6959 9.03866V13.0261C32.6959 14.668 32.2268 15.184 31.6638 15.2778C31.1478 15.3717 31.2416 15.6062 31.5231 15.6062C31.6169 15.6062 35.8858 15.6062 35.8858 15.6062C36.1204 15.7 36.3549 15.4655 35.7451 15.3247ZM24.3457 14.8556C24.1581 15.2778 23.7828 15.4186 23.5482 15.4186C23.2668 15.4186 22.4224 15.3716 22.4224 13.1668C22.4224 13.1668 22.4224 8.71028 22.4224 8.42882C22.4224 6.97458 21.2965 5.8018 18.388 5.8018C15.245 5.8018 15.1981 7.34986 15.1981 7.72515C15.1512 8.14735 15.3857 8.61646 16.1832 8.61646C16.8869 8.61646 17.0745 7.81897 17.1683 7.53751C17.2622 7.20913 17.3091 6.27091 18.5757 6.27091C19.6546 6.27091 20.3114 7.20913 20.3583 8.56955C20.3583 8.80411 20.3583 8.94484 20.3583 9.08557C20.3583 9.17939 20.3583 9.27322 20.3114 9.32013V9.36704C20.2175 9.83615 19.983 10.0707 19.5608 10.2583C18.9979 10.5398 17.356 10.7744 17.1683 10.8213C16.5116 10.962 14.682 11.4311 14.729 13.3545C14.7759 15.2309 16.6523 15.8877 17.9658 15.8408C19.2324 15.7938 19.983 15.2778 20.3114 14.9964C20.499 14.8556 20.499 14.8556 20.6397 15.0433C20.8274 15.2309 21.4372 15.8408 22.8915 15.8408C24.3926 15.8408 24.5803 15.1371 24.6741 14.9025C24.7679 14.7618 24.4395 14.6211 24.3457 14.8556ZM18.4818 15.3717C17.1683 15.3717 16.84 14.2927 16.84 13.7298C16.84 13.1668 17.1214 12.1348 18.4349 11.3842C18.4349 11.3842 19.0448 11.0089 20.2175 10.5398C20.2645 10.5398 20.3114 10.5398 20.3114 10.5398C20.3114 10.5398 20.3583 10.5867 20.3583 10.6336C20.3583 10.6336 20.3583 10.6805 20.3583 10.7275V10.7744V12.7446C20.3583 14.2458 19.6077 15.3717 18.4818 15.3717ZM13.9784 11.2904C13.5093 12.7915 12.618 15.2309 9.3811 15.3247C6.00351 15.3717 3.98634 13.073 3.89251 8.80411C3.75178 4.25374 5.72204 0.782319 8.77126 0.688497C12.1958 0.641586 13.4155 4.72285 13.4624 5.33269C13.5093 5.8018 14.1191 5.75489 14.1191 5.28578C14.1191 5.05122 13.8377 1.01687 13.7438 0.547764C13.65 0.078654 13.2747 0.266298 13.1809 0.453942C13.134 0.594675 13.2278 0.313209 13.0402 0.735408C12.8525 1.15761 12.3365 0.923052 12.1489 0.876141C11.5859 0.641586 10.507 0.078654 8.77126 0.125565C4.78382 0.219387 0.702565 3.17478 0.796387 8.335C0.890209 13.3545 4.92456 16.1691 8.67744 16.1222C12.1019 16.0753 14.0253 13.9174 14.5882 11.4311C14.7759 10.8213 14.166 10.6805 13.9784 11.2904Z" fill="white"/>
<defs>
<clipPath id="clip0_960_3368">
<rect width="9.8044" height="4.87875" fill="white" transform="translate(57.2321 0.218994)"/>
</clipPath>
</defs>
</svg>
