<svg width="68" height="16" viewBox="0 0 68 16" fill="none" xmlns="http://www.w3.org/2000/svg">
<path d="M63.8023 0.0961914H66.2417V4.97494H63.8023V0.0961914ZM59.5803 2.53556L59.4396 2.58247C59.4396 2.58247 60.284 3.28614 60.284 3.33305C60.3309 3.37996 60.3778 3.37996 60.3309 3.52069C60.284 3.66143 60.2371 3.80216 60.2371 3.80216C60.2371 3.80216 60.9877 3.66143 61.0815 3.61452C61.1753 3.61452 61.2222 3.61452 61.2222 3.70834C61.2222 3.80216 61.1753 4.59965 61.1753 4.59965H61.4099C61.4099 4.59965 61.363 3.75525 61.363 3.70834C61.363 3.61452 61.4099 3.61452 61.5037 3.61452C61.5975 3.61452 62.3481 3.80216 62.3481 3.80216C62.3481 3.80216 62.3012 3.61452 62.2543 3.52069C62.2074 3.37996 62.2543 3.37996 62.3012 3.33305C62.3481 3.28614 63.1456 2.58247 63.1456 2.58247L63.0048 2.53556C62.911 2.48865 62.9579 2.44174 62.9579 2.39483C62.9579 2.34792 63.0987 1.87881 63.0987 1.87881C63.0987 1.87881 62.7234 1.97263 62.6765 1.97263C62.6296 1.97263 62.5826 1.97263 62.5826 1.92572C62.5826 1.87881 62.4888 1.69117 62.4888 1.69117C62.4888 1.69117 62.0666 2.16028 62.0197 2.20719C61.9259 2.30101 61.8321 2.20719 61.879 2.11336C61.879 2.01954 62.1135 1.03441 62.1135 1.03441C62.1135 1.03441 61.879 1.17514 61.7852 1.22206C61.6913 1.26897 61.6444 1.26897 61.6444 1.17514C61.5975 1.08132 61.3161 0.565301 61.3161 0.51839C61.3161 0.51839 61.0346 1.08132 60.9877 1.17514C60.9408 1.26897 60.8939 1.26897 60.8469 1.22206C60.7531 1.17514 60.5186 1.03441 60.5186 1.03441C60.5186 1.03441 60.7531 2.01954 60.7531 2.11336C60.7531 2.20719 60.7062 2.2541 60.6124 2.20719L60.1433 1.69117C60.1433 1.69117 60.0964 1.8319 60.0494 1.87881C60.0494 1.92572 60.0025 1.97263 59.9556 1.92572C59.8618 1.92572 59.4865 1.8319 59.4865 1.8319C59.4865 1.8319 59.6273 2.30101 59.6742 2.34792C59.6742 2.39483 59.6742 2.48865 59.5803 2.53556ZM56.4373 0.0961914H58.8767V4.97494H56.4373V0.0961914Z" fill="#FF0000"/>
<path d="M66.756 14.7328C66.5683 15.155 66.193 15.2958 65.9585 15.2958C65.677 15.2958 64.8326 15.2488 64.8326 13.044C64.8326 13.044 64.8326 8.58748 64.8326 8.30602C64.8326 6.85177 63.7067 5.679 60.7983 5.679C57.6552 5.679 57.6083 7.22706 57.6083 7.60235C57.5614 8.02455 57.796 8.49366 58.5935 8.49366C59.2971 8.49366 59.4848 7.69617 59.5786 7.4147C59.6724 7.08633 59.7193 6.14811 60.9859 6.14811C62.0649 6.14811 62.7216 7.08633 62.7685 8.44675C62.7685 8.6813 62.7685 8.82204 62.7685 8.96277C62.7685 9.05659 62.7685 9.1035 62.7685 9.19732V9.24424C62.6747 9.71335 62.4402 9.9479 62.018 10.1355C61.455 10.417 59.8131 10.6516 59.6255 10.6985C58.9687 10.8392 57.1392 11.3083 57.1861 13.2317C57.233 15.1081 59.1095 15.7649 60.423 15.718C61.6896 15.671 62.4402 15.155 62.7685 14.8736C62.9562 14.7328 62.9562 14.7328 63.0969 14.9205C63.2845 15.1081 63.8944 15.718 65.3486 15.718C66.8498 15.718 67.0374 15.0143 67.1313 14.7797C67.1782 14.639 66.8498 14.4983 66.756 14.7328ZM60.8921 15.2488C59.5786 15.2488 59.2502 14.1699 59.2502 13.607C59.2502 13.0909 59.5317 12.012 60.8452 11.2614C60.8452 11.2614 61.455 10.8861 62.6278 10.417C62.6747 10.417 62.7216 10.417 62.7216 10.417C62.7216 10.417 62.7685 10.4639 62.7685 10.5108V10.5577V10.6047V12.5749C62.7685 14.123 62.018 15.2488 60.8921 15.2488ZM56.5763 15.2019C56.3886 15.155 55.2159 15.2958 55.2159 11.7305C55.2159 8.16528 55.2159 0.518784 55.2159 0.518784C55.2159 0.37805 55.2159 0.00276231 54.7937 0.00276231C54.3715 0.00276231 51.5568 0.143495 51.3692 0.190406C51.1815 0.190406 51.0408 0.424962 51.3692 0.424962C51.6975 0.471873 53.1987 0.565695 53.1987 3.05198C53.1987 4.27167 53.1987 5.49135 53.1987 6.38266C53.1987 6.42957 53.1987 6.47648 53.1987 6.47648C53.1987 6.57031 53.1987 6.61722 53.1518 6.66413C53.1518 6.66413 53.1518 6.66413 53.1518 6.71104C53.1049 6.75795 53.0579 6.71104 52.9172 6.61722C52.6827 6.42957 51.6037 5.77282 50.2433 5.77282C48.0385 5.77282 45.3176 7.36779 45.3176 10.6516C45.3176 14.1699 47.8039 15.8587 50.384 15.8587C51.6506 15.8587 52.5419 15.2958 52.8703 15.1081C53.2456 14.8736 53.1987 14.9205 53.2456 15.2488C53.2925 15.4834 53.2456 15.9525 53.9024 15.9056C54.606 15.8118 56.2948 15.6241 56.6232 15.5772C56.9516 15.4365 56.8577 15.2488 56.5763 15.2019ZM50.7593 15.3427C48.6952 15.3427 47.6163 12.9033 47.6163 10.5577C47.6163 7.97764 49.0705 6.24193 50.6186 6.33575C52.6358 6.47648 53.1518 8.07146 53.1987 10.933C53.1987 11.1207 53.1987 11.3083 53.1987 11.5429C53.1518 14.3575 51.979 15.3427 50.7593 15.3427ZM45.2707 14.7328C45.0831 15.155 44.7078 15.2958 44.4732 15.2958C44.1918 15.2958 43.3474 15.2488 43.3474 13.044C43.3474 13.044 43.3474 8.58748 43.3474 8.30602C43.3474 6.85177 42.2215 5.679 39.313 5.679C36.17 5.679 36.1231 7.22706 36.1231 7.60235C36.0762 8.02455 36.3107 8.49366 37.1082 8.49366C37.8119 8.49366 37.9995 7.69617 38.0933 7.4147C38.1872 7.08633 38.2341 6.14811 39.5007 6.14811C40.5796 6.14811 41.2833 7.08633 41.2833 8.49366V8.54057C41.2833 8.58748 41.2833 8.63439 41.2833 8.63439V8.77513C41.2833 8.82204 41.2833 8.91586 41.2833 8.96277C41.2364 9.66643 41.0487 9.90099 40.4858 10.1825C39.9229 10.4639 38.281 10.6985 38.0933 10.7454C37.4366 10.8861 35.6071 11.3552 35.654 13.2786C35.7009 15.155 37.5773 15.8118 38.8908 15.7649C40.1574 15.718 40.908 15.2019 41.2364 14.9205C41.424 14.7797 41.424 14.7797 41.5648 14.9674C41.7524 15.155 42.3622 15.7649 43.8165 15.7649C45.3176 15.7649 45.5053 15.0612 45.5991 14.8266C45.6929 14.639 45.4115 14.4983 45.2707 14.7328ZM39.4538 15.2488C38.1402 15.2488 37.8119 14.1699 37.8119 13.607C37.8119 13.0909 38.0933 12.012 39.4068 11.2614C39.4068 11.2614 40.0167 10.8861 41.1895 10.417C41.2364 10.417 41.2833 10.417 41.2833 10.417V10.4639C41.2833 10.5108 41.2833 10.5577 41.2833 10.6516V10.6047C41.2833 10.6047 41.2833 10.6047 41.2833 10.6516V12.6218C41.2833 14.123 40.5327 15.2488 39.4538 15.2488ZM34.9503 15.2019C34.575 15.1081 33.9183 14.6859 33.9183 12.6218V8.86895C33.9183 7.97764 34.0121 5.679 30.4938 5.679C28.6642 5.679 27.6322 6.61722 27.5384 6.66413C27.3976 6.80486 27.3038 6.85177 27.2569 6.61722C27.21 6.42957 27.1162 6.14811 27.0692 5.96046C27.0223 5.81973 26.9285 5.679 26.6001 5.72591C26.2718 5.77282 24.2077 6.1012 23.8324 6.19502C23.504 6.28884 23.5978 6.42957 23.8324 6.47648C24.0669 6.5234 25.1928 6.61722 25.1928 8.54057C25.1928 10.4639 25.1928 12.5749 25.1928 12.5749C25.1928 14.9205 24.7237 15.1081 24.3015 15.2488C23.7386 15.3896 24.02 15.5772 24.2546 15.5772C24.2546 15.5772 28.4297 15.5772 28.5235 15.5772C28.805 15.5772 28.9457 15.2958 28.3828 15.2019C27.8198 15.1081 27.3038 14.7797 27.3038 12.9502C27.3038 12.7626 27.3038 10.7454 27.3038 10.3701C27.3038 9.38497 27.0692 6.38266 29.7901 6.33575C31.7134 6.28884 31.9011 7.88382 31.9011 8.91586V12.9033C31.9011 14.5452 31.432 15.0612 30.869 15.155C30.353 15.2488 30.4468 15.4834 30.7283 15.4834C30.8221 15.4834 35.091 15.4834 35.091 15.4834C35.3256 15.5772 35.5601 15.3427 34.9503 15.2019ZM23.5509 14.7328C23.3633 15.155 22.988 15.2958 22.7534 15.2958C22.472 15.2958 21.6276 15.2488 21.6276 13.044C21.6276 13.044 21.6276 8.58748 21.6276 8.30602C21.6276 6.85177 20.5017 5.679 17.5932 5.679C14.4502 5.679 14.4033 7.22706 14.4033 7.60235C14.3564 8.02455 14.5909 8.49366 15.3884 8.49366C16.0921 8.49366 16.2797 7.69617 16.3735 7.4147C16.4674 7.08633 16.5143 6.14811 17.7809 6.14811C18.8598 6.14811 19.5166 7.08633 19.5635 8.44675C19.5635 8.6813 19.5635 8.82204 19.5635 8.96277C19.5635 9.05659 19.5635 9.15041 19.5166 9.19732V9.24424C19.4227 9.71335 19.1882 9.9479 18.766 10.1355C18.2031 10.417 16.5612 10.6516 16.3735 10.6985C15.7168 10.8392 13.8872 11.3083 13.9342 13.2317C13.9811 15.1081 15.8575 15.7649 17.171 15.718C18.4376 15.671 19.1882 15.155 19.5166 14.8736C19.7042 14.7328 19.7042 14.7328 19.8449 14.9205C20.0326 15.1081 20.6424 15.718 22.0967 15.718C23.5978 15.718 23.7855 15.0143 23.8793 14.7797C23.9731 14.639 23.6447 14.4983 23.5509 14.7328ZM17.687 15.2488C16.3735 15.2488 16.0452 14.1699 16.0452 13.607C16.0452 13.044 16.3266 12.012 17.6401 11.2614C17.6401 11.2614 18.25 10.8861 19.4227 10.417C19.4697 10.417 19.5166 10.417 19.5166 10.417C19.5166 10.417 19.5635 10.4639 19.5635 10.5108C19.5635 10.5108 19.5635 10.5577 19.5635 10.6047V10.6516V12.6218C19.5635 14.123 18.8129 15.2488 17.687 15.2488ZM13.1836 11.1676C12.7145 12.6687 11.8232 15.1081 8.5863 15.2019C5.20871 15.2488 3.19154 12.9502 3.09771 8.6813C2.95698 4.13093 4.92724 0.659517 7.97646 0.565695C11.401 0.518784 12.6207 4.60004 12.6676 5.20989C12.7145 5.679 13.3243 5.63209 13.3243 5.16298C13.3243 4.92842 13.0429 0.894072 12.949 0.424962C12.8552 -0.0441487 12.4799 0.143495 12.3861 0.33114C12.3392 0.471873 12.433 0.190406 12.2454 0.612606C12.0577 1.0348 11.5417 0.80025 11.3541 0.753339C10.7911 0.518784 9.71217 -0.0441487 7.97646 0.00276231C3.98902 0.0965844 -0.0922347 3.05198 0.00158738 8.21219C0.0954094 13.2317 4.12976 16.0463 7.88264 15.9994C11.3071 15.9525 13.2305 13.7946 13.7934 11.3083C13.9811 10.6985 13.3712 10.5577 13.1836 11.1676Z" fill="black"/>
</svg>
