<svg width="184" height="24" viewBox="0 0 184 24" fill="none" xmlns="http://www.w3.org/2000/svg">
<path d="M9.62057 9.59386H8.57079L8.33751 8.54088C7.40438 9.59386 6.70452 9.82786 5.53811 9.82786C2.7387 9.82786 1.10572 7.60489 1.10572 4.91393C0.989079 2.22297 2.62206 0 5.42147 0C7.52102 0 9.154 1.05298 9.38729 3.15895H7.7543C7.63766 1.87197 6.47124 1.28698 5.30482 1.28698C3.32191 1.28698 2.50542 3.04196 2.50542 4.91393C2.50542 6.66891 3.32191 8.54088 5.30482 8.54088C6.93781 8.54088 7.87094 7.60489 7.98758 5.96692H5.53811V4.67993H9.62057V9.59386ZM10.9036 6.20091C10.9036 4.09494 12.1867 2.57396 14.2862 2.57396C16.3858 2.57396 17.6688 4.09494 17.6688 6.20091C17.6688 8.30688 16.3858 9.82786 14.2862 9.82786C12.1867 9.82786 10.9036 8.30688 10.9036 6.20091ZM16.1525 6.20091C16.1525 5.03093 15.5693 3.86095 14.1696 3.86095C12.7699 3.86095 12.1867 5.03093 12.1867 6.20091C12.1867 7.3709 12.7699 8.65788 14.1696 8.65788C15.5693 8.65788 16.1525 7.3709 16.1525 6.20091ZM18.2521 2.80796H19.885L21.6347 8.07288L23.2676 2.80796H24.784L22.4512 9.59386H20.8182L18.2521 2.80796ZM26.8835 6.55191C26.8835 7.60489 27.4668 8.54088 28.7498 8.54088C29.5663 8.54088 30.1495 8.18988 30.3828 7.3709H31.7825C31.4326 8.89187 30.1495 9.71086 28.7498 9.71086C26.6503 9.71086 25.4838 8.18988 25.4838 6.08391C25.4838 4.09494 26.7669 2.45696 28.7498 2.45696C30.8494 2.45696 32.2491 4.44594 31.8991 6.43491H26.8835V6.55191ZM30.3828 5.61592C30.3828 4.67993 29.6829 3.86095 28.6332 3.86095C27.5834 3.86095 26.8835 4.67993 26.8835 5.61592H30.3828ZM33.0656 2.80796H34.4653V4.09494C34.5819 3.39295 35.515 2.57396 36.4482 2.57396C36.7981 2.57396 36.9147 2.57396 37.0314 2.57396V3.97794C36.7981 3.97794 36.5648 3.86095 36.3315 3.86095C35.2817 3.86095 34.4653 4.67993 34.4653 6.20091V9.47687H32.9489V2.80796H33.0656ZM37.9645 2.80796H39.3642V3.86095C39.8308 3.15896 40.5306 2.69096 41.4638 2.69096C42.9801 2.69096 43.9132 3.50995 43.9132 5.03093V9.71086H42.3969V5.38192C42.3969 4.32894 41.9303 3.86095 41.1138 3.86095C40.0641 3.86095 39.4809 4.67993 39.4809 5.61592V9.59386H37.9645V2.80796ZM45.4296 2.80796H46.8293V3.74395C47.2958 3.04196 47.8791 2.57396 48.9288 2.57396C49.7453 2.57396 50.5618 2.92496 50.7951 3.74395C51.2617 3.04196 51.9615 2.57396 52.8946 2.57396C54.2943 2.57396 55.1108 3.15895 55.1108 4.91393V9.59386H53.5945V5.61592C53.5945 4.56294 53.4779 3.74395 52.3114 3.74395C51.2617 3.74395 50.9117 4.44594 50.9117 5.61592V9.59386H49.3954V5.26493C49.3954 4.32894 49.1621 3.86095 48.229 3.86095C47.4125 3.86095 46.7126 4.44594 46.7126 5.61592V9.71086H45.1963V2.80796H45.4296ZM58.0269 6.55191C58.0269 7.60489 58.6101 8.54088 59.8932 8.54088C60.7096 8.54088 61.2929 8.18988 61.5261 7.3709H62.9258C62.5759 8.89187 61.2929 9.71086 59.8932 9.71086C57.7936 9.71086 56.6272 8.18988 56.6272 6.08391C56.6272 4.09494 57.9102 2.45696 59.8932 2.45696C61.9927 2.45696 63.3924 4.44594 63.0425 6.43491H58.0269V6.55191ZM61.5261 5.61592C61.5261 4.67993 60.8263 3.86095 59.7765 3.86095C58.7267 3.86095 58.0269 4.67993 58.0269 5.61592H61.5261ZM64.2089 2.80796H65.6086V3.86095C66.0752 3.15896 66.775 2.69096 67.7082 2.69096C69.2245 2.69096 70.1576 3.50995 70.1576 5.03093V9.71086H68.6413V5.38192C68.6413 4.32894 68.1747 3.86095 67.3582 3.86095C66.3084 3.86095 65.7252 4.67993 65.7252 5.61592V9.59386H64.2089V2.80796ZM71.0908 2.80796H72.2572V0.818988H73.7735V2.80796H75.1732V3.97794H73.7735V7.60489C73.7735 8.18988 73.7735 8.54088 74.4734 8.54088C74.7067 8.54088 74.9399 8.54088 75.0566 8.54088V9.71086C74.7067 9.71086 74.3567 9.82786 74.1235 9.82786C72.6071 9.82786 72.2572 9.24287 72.2572 8.07288V3.97794H71.0908V2.80796ZM0.872437 19.7727C0.872437 17.6667 2.1555 16.1458 4.25505 16.1458C6.47124 16.1458 7.63766 17.6667 7.63766 19.7727C7.63766 21.8787 6.3546 23.3997 4.25505 23.3997C2.1555 23.3997 0.872437 21.8787 0.872437 19.7727ZM6.23795 19.7727C6.23795 18.6027 5.65475 17.4328 4.25505 17.4328C2.97199 17.4328 2.27214 18.6027 2.27214 19.7727C2.27214 20.9427 2.85535 22.2297 4.25505 22.2297C5.65475 22.2297 6.23795 20.9427 6.23795 19.7727ZM8.33751 16.3798H9.50393V15.7948C9.50393 14.0398 10.4371 13.8058 11.3702 13.8058C11.8368 13.8058 12.1867 13.8058 12.42 13.9228V15.0928C12.1867 15.0928 12.07 14.9758 11.7201 14.9758C11.3702 14.9758 11.0203 15.0928 11.0203 15.6778V16.3798H12.3033V17.5498H11.0203V23.2827H9.50393V17.5498H8.33751V16.3798ZM23.2676 16.7308C23.0344 15.6778 22.3345 14.8588 20.9348 14.8588C18.9519 14.8588 18.1354 16.6138 18.1354 18.4857C18.1354 20.2407 18.9519 22.1127 20.9348 22.1127C22.3345 22.1127 23.151 21.0597 23.2676 19.6557H24.9006C24.784 21.8787 23.2676 23.3997 20.9348 23.3997C18.1354 23.3997 16.5024 21.1767 16.5024 18.4857C16.5024 15.7948 18.1354 13.5718 20.9348 13.5718C23.0344 13.5718 24.6673 14.7418 24.9006 16.7308H23.2676ZM31.8991 21.6447C31.8991 21.9957 32.0158 22.1127 32.2491 22.1127C32.3657 22.1127 32.4823 22.1127 32.599 22.1127V23.1657C32.3657 23.2827 31.8991 23.2827 31.6659 23.2827C31.0826 23.2827 30.6161 23.0487 30.4994 22.4637C29.9162 23.0487 28.9831 23.2827 28.1666 23.2827C27.0002 23.2827 25.8338 22.5807 25.8338 21.2937C25.8338 19.5387 27.2335 19.3047 28.3999 19.1877C29.4497 18.9537 30.3828 19.0707 30.3828 18.2517C30.3828 17.4328 29.5663 17.3158 28.9831 17.3158C28.1666 17.3158 27.5834 17.6667 27.4668 18.3687H25.9504C26.0671 16.6138 27.5834 16.1458 28.9831 16.1458C30.2662 16.1458 31.6659 16.7308 31.6659 18.1347V21.6447H31.8991ZM30.4994 19.7727C30.0329 20.1237 29.333 20.0067 28.6332 20.1237C27.9333 20.2407 27.4668 20.4747 27.4668 21.2937C27.4668 21.9957 28.2832 22.1127 28.8665 22.1127C29.5663 22.1127 30.4994 21.7617 30.4994 20.8257V19.7727ZM33.5321 16.3798H34.9318V17.4328C35.3984 16.7308 36.0982 16.2628 37.0314 16.2628C38.5477 16.2628 39.4809 17.0818 39.4809 18.6027V23.2827H37.9645V18.9537C37.9645 17.9007 37.4979 17.4328 36.6814 17.4328C35.6317 17.4328 35.0485 18.2517 35.0485 19.1877V23.1657H33.5321V16.3798ZM46.596 21.6447C46.596 21.9957 46.7126 22.1127 46.9459 22.1127C47.0626 22.1127 47.1792 22.1127 47.2959 22.1127V23.1657C47.0626 23.2827 46.596 23.2827 46.3627 23.2827C45.7795 23.2827 45.3129 23.0487 45.1963 22.4637C44.6131 23.0487 43.68 23.2827 42.8635 23.2827C41.697 23.2827 40.5306 22.5807 40.5306 21.2937C40.5306 19.5387 41.9303 19.3047 43.0967 19.1877C44.1465 18.9537 45.0797 19.0707 45.0797 18.2517C45.0797 17.4328 44.2632 17.3158 43.68 17.3158C42.8635 17.3158 42.2803 17.6667 42.1636 18.3687H40.6473C40.7639 16.6138 42.2803 16.1458 43.68 16.1458C44.963 16.1458 46.3627 16.7308 46.3627 18.1347V21.6447H46.596ZM45.0797 19.7727C44.6131 20.1237 43.9132 20.0067 43.2134 20.1237C42.5135 20.2407 42.047 20.4747 42.047 21.2937C42.047 21.9957 42.8635 22.1127 43.4467 22.1127C44.1465 22.1127 45.0797 21.7617 45.0797 20.8257V19.7727ZM54.5276 23.1657H53.1279V22.2297C52.778 23.0487 51.8449 23.2827 51.0284 23.2827C48.9288 23.2827 47.8791 21.6447 47.8791 19.6557C47.8791 17.1988 49.3954 16.1458 50.7951 16.1458C51.6116 16.1458 52.5447 16.4968 53.0113 17.1988V13.6888H54.5276V23.1657ZM51.2617 22.2297C52.5447 22.2297 53.1279 21.0597 53.1279 19.7727C53.1279 18.2517 52.4281 17.4328 51.2617 17.4328C49.862 17.4328 49.3954 18.7197 49.3954 19.8897C49.3954 21.0597 49.9786 22.2297 51.2617 22.2297ZM61.8761 21.6447C61.8761 21.9957 61.9927 22.1127 62.226 22.1127C62.3426 22.1127 62.4593 22.1127 62.5759 22.1127V23.1657C62.3426 23.2827 61.8761 23.2827 61.6428 23.2827C61.0596 23.2827 60.593 23.0487 60.4764 22.4637C59.8932 23.0487 58.96 23.2827 58.1435 23.2827C56.9771 23.2827 55.8107 22.5807 55.8107 21.2937C55.8107 19.5387 57.2104 19.3047 58.3768 19.1877C59.4266 18.9537 60.3597 19.0707 60.3597 18.2517C60.3597 17.4328 59.5432 17.3158 58.96 17.3158C58.1435 17.3158 57.5603 17.6667 57.4437 18.3687H55.9273C56.044 16.6138 57.5603 16.1458 58.96 16.1458C60.2431 16.1458 61.6428 16.7308 61.6428 18.1347V21.6447H61.8761ZM60.3597 19.7727C59.8932 20.1237 59.1933 20.0067 58.4935 20.1237C57.7936 20.2407 57.327 20.4747 57.327 21.2937C57.327 21.9957 58.1435 22.1127 58.7267 22.1127C59.4266 22.1127 60.3597 21.7617 60.3597 20.8257V19.7727ZM103.984 9.59386H102.934L102.701 8.54088C101.768 9.59386 101.068 9.82786 99.9013 9.82786C97.1019 9.82786 95.4689 7.60489 95.4689 4.91393C95.4689 2.22297 97.1019 0 99.9013 0C102.001 0 103.634 1.05298 103.867 3.15895H102.234C102.117 1.87197 100.951 1.28698 99.7846 1.28698C97.8017 1.28698 96.9852 3.04196 96.9852 4.91393C96.9852 6.66891 97.8017 8.54088 99.7846 8.54088C101.418 8.54088 102.351 7.60489 102.467 5.96692H100.018V4.67993H103.984V9.59386ZM105.383 6.20091C105.383 4.09494 106.666 2.57396 108.766 2.57396C110.866 2.57396 112.149 4.09494 112.149 6.20091C112.149 8.30688 110.866 9.82786 108.766 9.82786C106.666 9.82786 105.383 8.30688 105.383 6.20091ZM110.632 6.20091C110.632 5.03093 110.049 3.86095 108.649 3.86095C107.366 3.86095 106.666 5.03093 106.666 6.20091C106.666 7.3709 107.25 8.65788 108.649 8.65788C110.049 8.65788 110.632 7.3709 110.632 6.20091ZM119.38 9.59386H117.864V8.65788C117.514 9.35987 116.698 9.82786 115.881 9.82786C114.132 9.82786 113.315 8.89187 113.315 7.1369V2.80796H114.831V7.0199C114.831 8.18988 115.298 8.65788 116.114 8.65788C117.398 8.65788 117.747 7.83889 117.747 6.7859V2.80796H119.264L119.38 9.59386ZM120.314 2.80796H121.947L123.696 8.07288L125.329 2.80796H126.846L124.396 9.59386H122.763L120.314 2.80796ZM128.712 6.55191C128.712 7.60489 129.295 8.54088 130.578 8.54088C131.395 8.54088 131.978 8.18988 132.211 7.3709H133.611C133.261 8.89187 131.978 9.71086 130.578 9.71086C128.478 9.71086 127.312 8.18988 127.312 6.08391C127.312 4.09494 128.595 2.45696 130.578 2.45696C132.678 2.45696 134.077 4.44594 133.727 6.43491H128.712V6.55191ZM132.211 5.61592C132.211 4.67993 131.511 3.86095 130.461 3.86095C129.412 3.86095 128.712 4.67993 128.712 5.61592H132.211ZM134.894 2.80796H136.294V4.09494C136.41 3.39295 137.343 2.57396 138.276 2.57396C138.626 2.57396 138.743 2.57396 138.86 2.57396V3.97794C138.626 3.97794 138.393 3.86095 138.16 3.86095C137.11 3.86095 136.294 4.67993 136.294 6.20091V9.47687H134.777L134.894 2.80796ZM139.559 2.80796H140.959V3.86095C141.426 3.15896 142.126 2.69096 143.059 2.69096C144.575 2.69096 145.508 3.50995 145.508 5.03093V9.71086H143.992V5.38192C143.992 4.32894 143.525 3.86095 142.709 3.86095C141.659 3.86095 141.076 4.67993 141.076 5.61592V9.59386H139.559V2.80796ZM148.308 6.55191C148.308 7.60489 148.891 8.54088 150.174 8.54088C150.99 8.54088 151.574 8.18988 151.807 7.3709H153.207C152.857 8.89187 151.574 9.71086 150.174 9.71086C148.074 9.71086 146.908 8.18988 146.908 6.08391C146.908 4.09494 148.191 2.45696 150.174 2.45696C152.273 2.45696 153.673 4.44594 153.323 6.43491H148.308V6.55191ZM151.807 5.61592C151.807 4.67993 151.107 3.86095 150.057 3.86095C149.007 3.86095 148.308 4.67993 148.308 5.61592H151.807ZM154.373 2.80796H155.773V3.74395C156.239 3.04196 156.822 2.57396 157.872 2.57396C158.689 2.57396 159.505 2.92496 159.738 3.74395C160.205 3.04196 160.905 2.57396 161.838 2.57396C163.238 2.57396 164.054 3.15895 164.054 4.91393V9.59386H162.538V5.61592C162.538 4.56294 162.421 3.74395 161.255 3.74395C160.205 3.74395 159.855 4.44594 159.855 5.61592V9.59386H158.339V5.26493C158.339 4.32894 158.105 3.86095 157.172 3.86095C156.356 3.86095 155.656 4.44594 155.656 5.61592V9.71086H154.14V2.80796H154.373ZM166.97 6.55191C166.97 7.60489 167.553 8.54088 168.837 8.54088C169.653 8.54088 170.236 8.18988 170.47 7.3709H171.869C171.519 8.89187 170.236 9.71086 168.837 9.71086C166.737 9.71086 165.571 8.18988 165.571 6.08391C165.571 4.09494 166.854 2.45696 168.837 2.45696C170.936 2.45696 172.336 4.44594 171.986 6.43491H166.97V6.55191ZM170.47 5.61592C170.47 4.67993 169.77 3.86095 168.72 3.86095C167.67 3.86095 166.97 4.67993 166.97 5.61592H170.47ZM173.152 2.80796H174.552V3.86095C175.019 3.15896 175.718 2.69096 176.652 2.69096C178.168 2.69096 179.101 3.50995 179.101 5.03093V9.71086H177.585V5.38192C177.585 4.32894 177.118 3.86095 176.302 3.86095C175.252 3.86095 174.669 4.67993 174.669 5.61592V9.59386H173.152V2.80796ZM179.917 2.80796H181.084V0.818988H182.6V2.80796H184V3.97794H182.6V7.60489C182.6 8.18988 182.6 8.54088 183.3 8.54088C183.533 8.54088 183.767 8.54088 183.883 8.54088V9.71086C183.533 9.71086 183.183 9.82786 182.95 9.82786C181.434 9.82786 181.084 9.24287 181.084 8.07288V3.97794H179.917V2.80796ZM102.001 23.1657H100.601V22.2297C100.251 23.0487 99.3181 23.2827 98.5016 23.2827C96.402 23.2827 95.3522 21.6447 95.3522 19.6557C95.3522 17.1988 96.7519 16.1458 98.2683 16.1458C99.0848 16.1458 100.018 16.4968 100.484 17.1988V13.6888H102.001V23.1657ZM98.6182 22.2297C99.9013 22.2297 100.484 21.0597 100.484 19.7727C100.484 18.2517 99.7846 17.4328 98.6182 17.4328C97.2185 17.4328 96.7519 18.7197 96.7519 19.8897C96.7519 21.0597 97.3352 22.2297 98.6182 22.2297ZM109.583 23.1657H108.066V22.2297C107.716 22.9317 106.9 23.3997 106.083 23.3997C104.334 23.3997 103.517 22.4637 103.517 20.7087V16.3798H105.034V20.5917C105.034 21.7617 105.5 22.2297 106.317 22.2297C107.6 22.2297 107.95 21.4107 107.95 20.3577V16.3798H109.466V23.1657H109.583ZM121.363 16.7308C121.13 15.6778 120.43 14.8588 119.031 14.8588C117.048 14.8588 116.231 16.6138 116.231 18.4857C116.231 20.2407 117.048 22.1127 119.031 22.1127C120.547 22.1127 121.247 21.0597 121.363 19.6557H122.996C122.88 21.8787 121.247 23.5167 119.031 23.5167C116.231 23.5167 114.598 21.2937 114.598 18.6027C114.598 15.9118 116.231 13.6888 119.031 13.6888C121.13 13.6888 122.763 14.8588 122.996 16.8478H121.363V16.7308ZM129.878 21.6447C129.878 21.9957 129.995 22.1127 130.228 22.1127C130.345 22.1127 130.461 22.1127 130.578 22.1127V23.1657C130.345 23.2827 129.878 23.2827 129.645 23.2827C129.062 23.2827 128.595 23.0487 128.478 22.4637C127.895 23.0487 126.962 23.2827 126.146 23.2827C124.979 23.2827 123.813 22.5807 123.813 21.2937C123.813 19.5387 125.213 19.3047 126.379 19.1877C127.429 18.9537 128.362 19.0707 128.362 18.2517C128.362 17.4328 127.545 17.3158 126.962 17.3158C126.146 17.3158 125.562 17.6667 125.446 18.3687H123.929C124.046 16.6138 125.562 16.1458 126.962 16.1458C128.245 16.1458 129.645 16.7308 129.645 18.1347V21.6447H129.878ZM128.362 19.7727C127.895 20.1237 127.195 20.0067 126.496 20.1237C125.796 20.2407 125.329 20.4747 125.329 21.2937C125.329 21.9957 126.146 22.1127 126.729 22.1127C127.429 22.1127 128.362 21.7617 128.362 20.8257V19.7727ZM131.628 16.3798H133.028V17.4328C133.494 16.7308 134.194 16.2628 135.127 16.2628C136.643 16.2628 137.577 17.0818 137.577 18.6027V23.2827H136.06V18.9537C136.06 17.9007 135.594 17.4328 134.777 17.4328C133.727 17.4328 133.144 18.2517 133.144 19.1877V23.1657H131.628V16.3798ZM144.575 21.6447C144.575 21.9957 144.692 22.1127 144.925 22.1127C145.042 22.1127 145.158 22.1127 145.275 22.1127V23.1657C145.042 23.2827 144.575 23.2827 144.342 23.2827C143.759 23.2827 143.292 23.0487 143.175 22.4637C142.592 23.0487 141.659 23.2827 140.843 23.2827C139.676 23.2827 138.51 22.5807 138.51 21.2937C138.51 19.5387 139.909 19.3047 141.076 19.1877C142.126 18.9537 143.059 19.0707 143.059 18.2517C143.059 17.4328 142.242 17.3158 141.659 17.3158C140.843 17.3158 140.259 17.6667 140.143 18.3687H138.626C138.743 16.6138 140.259 16.1458 141.659 16.1458C142.942 16.1458 144.342 16.7308 144.342 18.1347V21.6447H144.575ZM143.059 19.7727C142.592 20.1237 141.892 20.0067 141.192 20.1237C140.493 20.2407 140.026 20.4747 140.026 21.2937C140.026 21.9957 140.843 22.1127 141.426 22.1127C142.126 22.1127 143.059 21.7617 143.059 20.8257V19.7727ZM152.623 23.1657H151.224V22.2297C150.874 23.0487 149.941 23.2827 149.124 23.2827C147.025 23.2827 145.975 21.6447 145.975 19.6557C145.975 17.1988 147.491 16.1458 148.891 16.1458C149.707 16.1458 150.64 16.4968 151.107 17.1988V13.6888H152.623V23.1657ZM149.241 22.2297C150.524 22.2297 151.107 21.0597 151.107 19.7727C151.107 18.2517 150.407 17.4328 149.241 17.4328C147.841 17.4328 147.374 18.7197 147.374 19.8897C147.374 21.0597 147.958 22.2297 149.241 22.2297ZM159.855 21.6447C159.855 21.9957 159.972 22.1127 160.205 22.1127C160.322 22.1127 160.438 22.1127 160.555 22.1127V23.1657C160.322 23.2827 159.855 23.2827 159.622 23.2827C159.039 23.2827 158.572 23.0487 158.455 22.4637C157.872 23.0487 156.939 23.2827 156.123 23.2827C154.956 23.2827 153.79 22.5807 153.79 21.2937C153.79 19.5387 155.189 19.3047 156.356 19.1877C157.406 18.9537 158.339 19.0707 158.339 18.2517C158.339 17.4328 157.522 17.3158 156.939 17.3158C156.123 17.3158 155.539 17.6667 155.423 18.3687H153.906C154.023 16.6138 155.539 16.1458 156.939 16.1458C158.222 16.1458 159.622 16.7308 159.622 18.1347V21.6447H159.855ZM158.339 19.7727C157.872 20.1237 157.172 20.0067 156.473 20.1237C155.773 20.2407 155.306 20.4747 155.306 21.2937C155.306 21.9957 156.123 22.1127 156.706 22.1127C157.406 22.1127 158.339 21.7617 158.339 20.8257V19.7727Z" fill="black"/>
</svg>
