<svg width="219" height="28" viewBox="0 0 219 28" fill="none" xmlns="http://www.w3.org/2000/svg">
<path d="M10.8466 11.4229H9.59667L9.31892 10.1692C8.20788 11.4229 7.37461 11.7015 5.98582 11.7015C2.65273 11.7015 0.708423 9.05473 0.708423 5.85075C0.569544 2.64677 2.51385 0 5.84694 0C8.34676 0 10.2911 1.25373 10.5688 3.76119H8.62452C8.48564 2.22886 7.09685 1.53234 5.70806 1.53234C3.34712 1.53234 2.37497 3.62189 2.37497 5.85075C2.37497 7.9403 3.34712 10.1692 5.70806 10.1692C7.65237 10.1692 8.7634 9.05473 8.90228 7.10448H5.98582V5.57214H10.8466V11.4229ZM12.3742 7.38309C12.3742 4.87562 13.9019 3.06468 16.4017 3.06468C18.9016 3.06468 20.4292 4.87562 20.4292 7.38309C20.4292 9.89055 18.9016 11.7015 16.4017 11.7015C13.9019 11.7015 12.3742 9.89055 12.3742 7.38309ZM18.6238 7.38309C18.6238 5.99005 17.9294 4.59702 16.2629 4.59702C14.5963 4.59702 13.9019 5.99005 13.9019 7.38309C13.9019 8.77612 14.5963 10.3085 16.2629 10.3085C17.9294 10.3085 18.6238 8.77612 18.6238 7.38309ZM21.1236 3.34328H23.0679L25.1511 9.61194L27.0954 3.34328H28.9008L26.1233 11.4229H24.179L21.1236 3.34328ZM31.4007 7.801C31.4007 9.05473 32.0951 10.1692 33.6227 10.1692C34.5949 10.1692 35.2893 9.75124 35.567 8.77612H37.2336C36.8169 10.5871 35.2893 11.5622 33.6227 11.5622C31.1229 11.5622 29.7341 9.75124 29.7341 7.24378C29.7341 4.87562 31.2618 2.92537 33.6227 2.92537C36.1225 2.92537 37.7891 5.29353 37.3725 7.66169H31.4007V7.801ZM35.567 6.68657C35.567 5.57214 34.7338 4.59702 33.4838 4.59702C32.2339 4.59702 31.4007 5.57214 31.4007 6.68657H35.567ZM38.7612 3.34328H40.4278V4.87562C40.5667 4.0398 41.6777 3.06468 42.7887 3.06468C43.2054 3.06468 43.3442 3.06468 43.4831 3.06468V4.73632C43.2054 4.73632 42.9276 4.59702 42.6499 4.59702C41.3999 4.59702 40.4278 5.57214 40.4278 7.38309V11.2836H38.6224V3.34328H38.7612ZM44.5942 3.34328H46.2607V4.59702C46.8162 3.76119 47.6495 3.20398 48.7605 3.20398C50.566 3.20398 51.677 4.17911 51.677 5.99005V11.5622H49.8716V6.40796C49.8716 5.15423 49.316 4.59702 48.3439 4.59702C47.094 4.59702 46.3996 5.57214 46.3996 6.68657V11.4229H44.5942V3.34328ZM53.4824 3.34328H55.149V4.45771C55.7045 3.62189 56.3989 3.06468 57.6488 3.06468C58.6209 3.06468 59.5931 3.48259 59.8708 4.45771C60.4264 3.62189 61.2596 3.06468 62.3707 3.06468C64.0372 3.06468 65.0094 3.76119 65.0094 5.85075V11.4229H63.2039V6.68657C63.2039 5.43284 63.065 4.45771 61.6763 4.45771C60.4263 4.45771 60.0097 5.29353 60.0097 6.68657V11.4229H58.2043V6.26866C58.2043 5.15423 57.9265 4.59702 56.8155 4.59702C55.8433 4.59702 55.0101 5.29353 55.0101 6.68657V11.5622H53.2046V3.34328H53.4824ZM68.4813 7.801C68.4813 9.05473 69.1757 10.1692 70.7034 10.1692C71.6755 10.1692 72.3699 9.75124 72.6477 8.77612H74.3142C73.8976 10.5871 72.3699 11.5622 70.7034 11.5622C68.2036 11.5622 66.8148 9.75124 66.8148 7.24378C66.8148 4.87562 68.3424 2.92537 70.7034 2.92537C73.2032 2.92537 74.8698 5.29353 74.4531 7.66169H68.4813V7.801ZM72.6477 6.68657C72.6477 5.57214 71.8144 4.59702 70.5645 4.59702C69.3146 4.59702 68.4813 5.57214 68.4813 6.68657H72.6477ZM75.8419 3.34328H77.5085V4.59702C78.064 3.76119 78.8972 3.20398 80.0083 3.20398C81.8137 3.20398 82.9247 4.17911 82.9247 5.99005V11.5622H81.1193V6.40796C81.1193 5.15423 80.5638 4.59702 79.5916 4.59702C78.3417 4.59702 77.6473 5.57214 77.6473 6.68657V11.4229H75.8419V3.34328ZM84.0358 3.34328H85.4246V0.975125H87.23V3.34328H88.8965V4.73632H87.23V9.05473C87.23 9.75124 87.23 10.1692 88.0632 10.1692C88.341 10.1692 88.6188 10.1692 88.7576 10.1692V11.5622C88.341 11.5622 87.9244 11.7015 87.6466 11.7015C85.8412 11.7015 85.4246 11.005 85.4246 9.61194V4.73632H84.0358V3.34328ZM0.430664 23.5423C0.430664 21.0348 1.95833 19.2239 4.45815 19.2239C7.09685 19.2239 8.48565 21.0348 8.48565 23.5423C8.48565 26.0498 6.95797 27.8607 4.45815 27.8607C1.95833 27.8607 0.430664 26.0498 0.430664 23.5423ZM6.81909 23.5423C6.81909 22.1493 6.1247 20.7562 4.45815 20.7562C2.93049 20.7562 2.09721 22.1493 2.09721 23.5423C2.09721 24.9353 2.79161 26.4677 4.45815 26.4677C6.1247 26.4677 6.81909 24.9353 6.81909 23.5423ZM9.31892 19.5025H10.7077V18.806C10.7077 16.7164 11.8187 16.4378 12.9298 16.4378C13.4853 16.4378 13.9019 16.4378 14.1797 16.5771V17.9701C13.9019 17.9701 13.763 17.8308 13.3464 17.8308C12.9298 17.8308 12.5131 17.9701 12.5131 18.6667V19.5025H14.0408V20.8955H12.5131V27.7214H10.7077V20.8955H9.31892V19.5025ZM27.0954 19.9204C26.8177 18.6667 25.9844 17.6915 24.3178 17.6915C21.9569 17.6915 20.9847 19.7811 20.9847 22.01C20.9847 24.0995 21.9569 26.3284 24.3178 26.3284C25.9844 26.3284 26.9565 25.0746 27.0954 23.403H29.0397C28.9008 26.0498 27.0954 27.8607 24.3178 27.8607C20.9847 27.8607 19.0404 25.2139 19.0404 22.01C19.0404 18.806 20.9847 16.1592 24.3178 16.1592C26.8177 16.1592 28.762 17.5522 29.0397 19.9204H27.0954ZM37.3725 25.7711C37.3725 26.1891 37.5113 26.3284 37.7891 26.3284C37.928 26.3284 38.0668 26.3284 38.2057 26.3284V27.5821C37.928 27.7214 37.3725 27.7214 37.0947 27.7214C36.4003 27.7214 35.8448 27.4428 35.7059 26.7463C35.0115 27.4428 33.9005 27.7214 32.9283 27.7214C31.5395 27.7214 30.1508 26.8856 30.1508 25.3532C30.1508 23.2637 31.8173 22.9851 33.2061 22.8458C34.456 22.5672 35.567 22.7065 35.567 21.7313C35.567 20.7562 34.5949 20.6169 33.9005 20.6169C32.9283 20.6169 32.2339 21.0348 32.0951 21.8706H30.2896C30.4285 19.7811 32.2339 19.2239 33.9005 19.2239C35.4281 19.2239 37.0947 19.9204 37.0947 21.592V25.7711H37.3725ZM35.7059 23.5423C35.1504 23.9602 34.3171 23.8209 33.4838 23.9602C32.6506 24.0995 32.0951 24.3781 32.0951 25.3532C32.0951 26.1891 33.0672 26.3284 33.7616 26.3284C34.5949 26.3284 35.7059 25.9104 35.7059 24.796V23.5423ZM39.3168 19.5025H40.9833V20.7562C41.5388 19.9204 42.3721 19.3632 43.4831 19.3632C45.2886 19.3632 46.3996 20.3383 46.3996 22.1493V27.7214H44.5942V22.5672C44.5942 21.3134 44.0386 20.7562 43.0665 20.7562C41.8166 20.7562 41.1222 21.7313 41.1222 22.8458V27.5821H39.3168V19.5025ZM54.8712 25.7711C54.8712 26.1891 55.0101 26.3284 55.2878 26.3284C55.4267 26.3284 55.5656 26.3284 55.7045 26.3284V27.5821C55.4267 27.7214 54.8712 27.7214 54.5934 27.7214C53.899 27.7214 53.3435 27.4428 53.2046 26.7463C52.5103 27.4428 51.3992 27.7214 50.4271 27.7214C49.0383 27.7214 47.6495 26.8856 47.6495 25.3532C47.6495 23.2637 49.316 22.9851 50.7048 22.8458C51.9547 22.5672 53.0658 22.7065 53.0658 21.7313C53.0658 20.7562 52.0936 20.6169 51.3992 20.6169C50.4271 20.6169 49.7327 21.0348 49.5938 21.8706H47.7884C47.9272 19.7811 49.7327 19.2239 51.3992 19.2239C52.9269 19.2239 54.5934 19.9204 54.5934 21.592V25.7711H54.8712ZM53.0658 23.5423C52.5103 23.9602 51.677 23.8209 50.8437 23.9602C50.0104 24.0995 49.4549 24.3781 49.4549 25.3532C49.4549 26.1891 50.4271 26.3284 51.1215 26.3284C51.9547 26.3284 53.0658 25.9104 53.0658 24.796V23.5423ZM64.315 27.5821H62.6484V26.4677C62.2318 27.4428 61.1207 27.7214 60.1486 27.7214C57.6488 27.7214 56.3989 25.7711 56.3989 23.403C56.3989 20.4776 58.2043 19.2239 59.8708 19.2239C60.843 19.2239 61.954 19.6418 62.5095 20.4776V16.2985H64.315V27.5821ZM60.4263 26.4677C61.954 26.4677 62.6484 25.0746 62.6484 23.5423C62.6484 21.7313 61.8151 20.7562 60.4263 20.7562C58.7598 20.7562 58.2043 22.2886 58.2043 23.6816C58.2043 25.0746 58.8987 26.4677 60.4263 26.4677ZM73.0643 25.7711C73.0643 26.1891 73.2032 26.3284 73.481 26.3284C73.6198 26.3284 73.7587 26.3284 73.8976 26.3284V27.5821C73.6199 27.7214 73.0643 27.7214 72.7866 27.7214C72.0922 27.7214 71.5367 27.4428 71.3978 26.7463C70.7034 27.4428 69.5924 27.7214 68.6202 27.7214C67.2314 27.7214 65.8426 26.8856 65.8426 25.3532C65.8426 23.2637 67.5092 22.9851 68.898 22.8458C70.1479 22.5672 71.2589 22.7065 71.2589 21.7313C71.2589 20.7562 70.2868 20.6169 69.5924 20.6169C68.6202 20.6169 67.9258 21.0348 67.7869 21.8706H65.9815C66.1204 19.7811 67.9258 19.2239 69.5924 19.2239C71.12 19.2239 72.7866 19.9204 72.7866 21.592V25.7711H73.0643ZM71.2589 23.5423C70.7034 23.9602 69.8701 23.8209 69.0368 23.9602C68.2036 24.0995 67.6481 24.3781 67.6481 25.3532C67.6481 26.1891 68.6202 26.3284 69.3146 26.3284C70.1479 26.3284 71.2589 25.9104 71.2589 24.796V23.5423ZM123.2 11.4229H121.95L121.672 10.1692C120.561 11.4229 119.728 11.7015 118.339 11.7015C115.006 11.7015 113.061 9.05473 113.061 5.85075C113.061 2.64677 115.006 0 118.339 0C120.839 0 122.783 1.25373 123.061 3.76119H121.116C120.978 2.22886 119.589 1.53234 118.2 1.53234C115.839 1.53234 114.867 3.62189 114.867 5.85075C114.867 7.9403 115.839 10.1692 118.2 10.1692C120.144 10.1692 121.255 9.05473 121.394 7.10448H118.478V5.57214H123.2V11.4229ZM124.866 7.38309C124.866 4.87562 126.394 3.06468 128.894 3.06468C131.393 3.06468 132.921 4.87562 132.921 7.38309C132.921 9.89055 131.393 11.7015 128.894 11.7015C126.394 11.7015 124.866 9.89055 124.866 7.38309ZM131.116 7.38309C131.116 5.99005 130.421 4.59702 128.755 4.59702C127.227 4.59702 126.394 5.99005 126.394 7.38309C126.394 8.77612 127.088 10.3085 128.755 10.3085C130.421 10.3085 131.116 8.77612 131.116 7.38309ZM141.532 11.4229H139.726V10.3085C139.31 11.1443 138.337 11.7015 137.365 11.7015C135.282 11.7015 134.31 10.5871 134.31 8.49751V3.34328H136.115V8.35821C136.115 9.75124 136.671 10.3085 137.643 10.3085C139.171 10.3085 139.587 9.33333 139.587 8.0796V3.34328H141.393L141.532 11.4229ZM142.643 3.34328H144.587L146.67 9.61194L148.614 3.34328H150.42L147.503 11.4229H145.559L142.643 3.34328ZM152.642 7.801C152.642 9.05473 153.336 10.1692 154.864 10.1692C155.836 10.1692 156.531 9.75124 156.808 8.77612H158.475C158.058 10.5871 156.531 11.5622 154.864 11.5622C152.364 11.5622 150.975 9.75124 150.975 7.24378C150.975 4.87562 152.503 2.92537 154.864 2.92537C157.364 2.92537 159.03 5.29353 158.614 7.66169H152.642V7.801ZM156.808 6.68657C156.808 5.57214 155.975 4.59702 154.725 4.59702C153.475 4.59702 152.642 5.57214 152.642 6.68657H156.808ZM160.003 3.34328H161.669V4.87562C161.808 4.0398 162.919 3.06468 164.03 3.06468C164.447 3.06468 164.586 3.06468 164.724 3.06468V4.73632C164.447 4.73632 164.169 4.59702 163.891 4.59702C162.641 4.59702 161.669 5.57214 161.669 7.38309V11.2836H159.864L160.003 3.34328ZM165.558 3.34328H167.224V4.59702C167.78 3.76119 168.613 3.20398 169.724 3.20398C171.529 3.20398 172.641 4.17911 172.641 5.99005V11.5622H170.835V6.40796C170.835 5.15423 170.28 4.59702 169.307 4.59702C168.058 4.59702 167.363 5.57214 167.363 6.68657V11.4229H165.558V3.34328ZM175.974 7.801C175.974 9.05473 176.668 10.1692 178.196 10.1692C179.168 10.1692 179.862 9.75124 180.14 8.77612H181.807C181.39 10.5871 179.862 11.5622 178.196 11.5622C175.696 11.5622 174.307 9.75124 174.307 7.24378C174.307 4.87562 175.835 2.92537 178.196 2.92537C180.695 2.92537 182.362 5.29353 181.945 7.66169H175.974V7.801ZM180.14 6.68657C180.14 5.57214 179.307 4.59702 178.057 4.59702C176.807 4.59702 175.974 5.57214 175.974 6.68657H180.14ZM183.195 3.34328H184.862V4.45771C185.417 3.62189 186.112 3.06468 187.362 3.06468C188.334 3.06468 189.306 3.48259 189.584 4.45771C190.139 3.62189 190.973 3.06468 192.084 3.06468C193.75 3.06468 194.722 3.76119 194.722 5.85075V11.4229H192.917V6.68657C192.917 5.43284 192.778 4.45771 191.389 4.45771C190.139 4.45771 189.723 5.29353 189.723 6.68657V11.4229H187.917V6.26866C187.917 5.15423 187.639 4.59702 186.528 4.59702C185.556 4.59702 184.723 5.29353 184.723 6.68657V11.5622H182.918V3.34328H183.195ZM198.194 7.801C198.194 9.05473 198.889 10.1692 200.416 10.1692C201.388 10.1692 202.083 9.75124 202.361 8.77612H204.027C203.611 10.5871 202.083 11.5622 200.416 11.5622C197.916 11.5622 196.528 9.75124 196.528 7.24378C196.528 4.87562 198.055 2.92537 200.416 2.92537C202.916 2.92537 204.583 5.29353 204.166 7.66169H198.194V7.801ZM202.361 6.68657C202.361 5.57214 201.527 4.59702 200.277 4.59702C199.027 4.59702 198.194 5.57214 198.194 6.68657H202.361ZM205.555 3.34328H207.221V4.59702C207.777 3.76119 208.61 3.20398 209.721 3.20398C211.527 3.20398 212.638 4.17911 212.638 5.99005V11.5622H210.832V6.40796C210.832 5.15423 210.277 4.59702 209.305 4.59702C208.055 4.59702 207.36 5.57214 207.36 6.68657V11.4229H205.555V3.34328ZM213.61 3.34328H214.999V0.975125H216.804V3.34328H218.471V4.73632H216.804V9.05473C216.804 9.75124 216.804 10.1692 217.637 10.1692C217.915 10.1692 218.193 10.1692 218.332 10.1692V11.5622C217.915 11.5622 217.498 11.7015 217.221 11.7015C215.415 11.7015 214.999 11.005 214.999 9.61194V4.73632H213.61V3.34328ZM120.839 27.5821H119.172V26.4677C118.755 27.4428 117.644 27.7214 116.672 27.7214C114.172 27.7214 112.923 25.7711 112.923 23.403C112.923 20.4776 114.589 19.2239 116.395 19.2239C117.367 19.2239 118.478 19.6418 119.033 20.4776V16.2985H120.839V27.5821ZM116.811 26.4677C118.339 26.4677 119.033 25.0746 119.033 23.5423C119.033 21.7313 118.2 20.7562 116.811 20.7562C115.145 20.7562 114.589 22.2886 114.589 23.6816C114.589 25.0746 115.284 26.4677 116.811 26.4677ZM129.866 27.5821H128.06V26.4677C127.644 27.3035 126.672 27.8607 125.699 27.8607C123.616 27.8607 122.644 26.7463 122.644 24.6567V19.5025H124.45V24.5174C124.45 25.9104 125.005 26.4677 125.977 26.4677C127.505 26.4677 127.922 25.4925 127.922 24.2388V19.5025H129.727V27.5821H129.866ZM143.893 19.9204C143.615 18.6667 142.782 17.6915 141.115 17.6915C138.754 17.6915 137.782 19.7811 137.782 22.01C137.782 24.0995 138.754 26.3284 141.115 26.3284C142.92 26.3284 143.754 25.0746 143.893 23.403H145.837C145.698 26.0498 143.754 28 141.115 28C137.782 28 135.838 25.3532 135.838 22.1493C135.838 18.9453 137.782 16.2985 141.115 16.2985C143.615 16.2985 145.559 17.6915 145.837 20.0597H143.893V19.9204ZM154.031 25.7711C154.031 26.1891 154.17 26.3284 154.447 26.3284C154.586 26.3284 154.725 26.3284 154.864 26.3284V27.5821C154.586 27.7214 154.031 27.7214 153.753 27.7214C153.059 27.7214 152.503 27.4428 152.364 26.7463C151.67 27.4428 150.559 27.7214 149.587 27.7214C148.198 27.7214 146.809 26.8856 146.809 25.3532C146.809 23.2637 148.476 22.9851 149.864 22.8458C151.114 22.5672 152.225 22.7065 152.225 21.7313C152.225 20.7562 151.253 20.6169 150.559 20.6169C149.587 20.6169 148.892 21.0348 148.753 21.8706H146.948C147.087 19.7811 148.892 19.2239 150.559 19.2239C152.086 19.2239 153.753 19.9204 153.753 21.592V25.7711H154.031ZM152.225 23.5423C151.67 23.9602 150.837 23.8209 150.003 23.9602C149.17 24.0995 148.614 24.3781 148.614 25.3532C148.614 26.1891 149.587 26.3284 150.281 26.3284C151.114 26.3284 152.225 25.9104 152.225 24.796V23.5423ZM156.114 19.5025H157.78V20.7562C158.336 19.9204 159.169 19.3632 160.28 19.3632C162.086 19.3632 163.197 20.3383 163.197 22.1493V27.7214H161.391V22.5672C161.391 21.3134 160.836 20.7562 159.864 20.7562C158.614 20.7562 157.919 21.7313 157.919 22.8458V27.5821H156.114V19.5025ZM171.529 25.7711C171.529 26.1891 171.668 26.3284 171.946 26.3284C172.085 26.3284 172.224 26.3284 172.363 26.3284V27.5821C172.085 27.7214 171.529 27.7214 171.252 27.7214C170.557 27.7214 170.002 27.4428 169.863 26.7463C169.169 27.4428 168.058 27.7214 167.085 27.7214C165.697 27.7214 164.308 26.8856 164.308 25.3532C164.308 23.2637 165.974 22.9851 167.363 22.8458C168.613 22.5672 169.724 22.7065 169.724 21.7313C169.724 20.7562 168.752 20.6169 168.057 20.6169C167.085 20.6169 166.391 21.0348 166.252 21.8706H164.447C164.586 19.7811 166.391 19.2239 168.057 19.2239C169.585 19.2239 171.252 19.9204 171.252 21.592V25.7711H171.529ZM169.724 23.5423C169.169 23.9602 168.335 23.8209 167.502 23.9602C166.669 24.0995 166.113 24.3781 166.113 25.3532C166.113 26.1891 167.085 26.3284 167.78 26.3284C168.613 26.3284 169.724 25.9104 169.724 24.796V23.5423ZM181.112 27.5821H179.446V26.4677C179.029 27.4428 177.918 27.7214 176.946 27.7214C174.446 27.7214 173.196 25.7711 173.196 23.403C173.196 20.4776 175.001 19.2239 176.668 19.2239C177.64 19.2239 178.751 19.6418 179.307 20.4776V16.2985H181.112V27.5821ZM177.085 26.4677C178.612 26.4677 179.307 25.0746 179.307 23.5423C179.307 21.7313 178.473 20.7562 177.085 20.7562C175.418 20.7562 174.863 22.2886 174.863 23.6816C174.863 25.0746 175.557 26.4677 177.085 26.4677ZM189.723 25.7711C189.723 26.1891 189.861 26.3284 190.139 26.3284C190.278 26.3284 190.417 26.3284 190.556 26.3284V27.5821C190.278 27.7214 189.723 27.7214 189.445 27.7214C188.75 27.7214 188.195 27.4428 188.056 26.7463C187.362 27.4428 186.251 27.7214 185.279 27.7214C183.89 27.7214 182.501 26.8856 182.501 25.3532C182.501 23.2637 184.167 22.9851 185.556 22.8458C186.806 22.5672 187.917 22.7065 187.917 21.7313C187.917 20.7562 186.945 20.6169 186.251 20.6169C185.278 20.6169 184.584 21.0348 184.445 21.8706H182.64C182.779 19.7811 184.584 19.2239 186.251 19.2239C187.778 19.2239 189.445 19.9204 189.445 21.592V25.7711H189.723ZM187.917 23.5423C187.362 23.9602 186.528 23.8209 185.695 23.9602C184.862 24.0995 184.306 24.3781 184.306 25.3532C184.306 26.1891 185.279 26.3284 185.973 26.3284C186.806 26.3284 187.917 25.9104 187.917 24.796V23.5423Z" fill="black"/>
</svg>
