<svg width="55" height="28" viewBox="0 0 55 28" fill="none" xmlns="http://www.w3.org/2000/svg">
<path d="M54.8572 27.5906H41.1082V0.28717H54.8572V27.5906ZM27.498 2.37672C27.498 2.37672 25.8315 5.72001 25.5537 5.99861C25.276 6.41652 25.1371 6.41652 24.7205 6.27722C24.3038 5.99861 22.915 5.30209 22.915 5.30209C22.915 5.30209 24.1649 10.7349 24.1649 11.1528C24.3038 11.5708 23.8872 11.9887 23.3317 11.5708C23.1928 11.4314 20.8318 8.78468 20.8318 8.78468C20.8318 8.78468 20.2763 10.0384 20.1374 10.317C19.9986 10.5956 19.8597 10.7349 19.5819 10.5956C19.1653 10.4563 16.9432 10.0384 16.9432 10.0384C16.9432 10.0384 17.7765 12.6852 17.9154 13.1031C18.0543 13.3817 18.1931 13.6603 17.6376 13.9389L16.8044 14.2175C16.8044 14.2175 21.3874 18.2573 21.5262 18.3966C21.804 18.6752 21.9429 18.6752 21.804 19.3717C21.5262 20.0683 21.3874 20.9041 21.3874 20.9041C21.3874 20.9041 25.6926 19.929 26.1092 19.929C26.5259 19.929 26.9425 20.0683 26.9425 20.4862C26.9425 20.9041 26.6648 25.6404 26.6648 25.6404H28.0535C28.0535 25.6404 27.7758 21.0434 27.7758 20.4862C27.7758 20.0683 28.1924 19.929 28.6091 19.929C29.0257 20.0683 33.3309 20.9041 33.3309 20.9041C33.3309 20.9041 33.0532 19.929 32.9143 19.3717C32.6366 18.6752 32.9143 18.5359 33.1921 18.3966C33.3309 18.2573 37.914 14.2175 37.914 14.2175L37.0807 13.9389C36.664 13.6603 36.8029 13.3817 36.8029 13.1031C36.9418 12.8245 37.7751 10.0384 37.7751 10.0384C37.7751 10.0384 35.553 10.4563 35.1364 10.5956C34.8586 10.7349 34.7197 10.4563 34.5809 10.317C34.442 10.0384 33.8865 8.78468 33.8865 8.78468C33.8865 8.78468 31.5255 11.5708 31.3866 11.5708C30.97 11.8494 30.4145 11.5708 30.5534 11.1528C30.5534 10.7349 31.8033 5.30209 31.8033 5.30209C31.8033 5.30209 30.4145 6.13792 29.9979 6.27722C29.7201 6.55583 29.4423 6.55583 29.1646 5.99861C29.1646 5.5807 27.498 2.37672 27.498 2.37672ZM13.749 27.5906V0.28717H0V27.5906H13.749Z" fill="#FF0000"/>
</svg>
