<svg width="297" height="28" viewBox="0 0 297 28" fill="none" xmlns="http://www.w3.org/2000/svg">
<g clip-path="url(#clip0_958_3471)">
<path d="M3 0.285156H51V27.4864H3V0.285156Z" fill="white"/>
<path d="M54.8572 27.5906H41.1082V0.287109H54.8572V27.5906ZM27.498 2.37666C27.498 2.37666 25.8315 5.71994 25.5537 5.99855C25.276 6.41646 25.1371 6.41646 24.7205 6.27716C24.3038 5.99855 22.915 5.30203 22.915 5.30203C22.915 5.30203 24.1649 10.7349 24.1649 11.1528C24.3038 11.5707 23.8872 11.9886 23.3317 11.5707C23.1928 11.4314 20.8318 8.78462 20.8318 8.78462C20.8318 8.78462 20.2763 10.0384 20.1374 10.317C19.9986 10.5956 19.8597 10.7349 19.5819 10.5956C19.1653 10.4563 16.9432 10.0384 16.9432 10.0384C16.9432 10.0384 17.7765 12.6851 17.9154 13.103C18.0543 13.3816 18.1931 13.6602 17.6376 13.9388L16.8044 14.2175C16.8044 14.2175 21.3874 18.2573 21.5262 18.3966C21.804 18.6752 21.9429 18.6752 21.804 19.3717C21.5262 20.0682 21.3874 20.904 21.3874 20.904C21.3874 20.904 25.6926 19.9289 26.1092 19.9289C26.5259 19.9289 26.9425 20.0682 26.9425 20.4861C26.9425 20.904 26.6648 25.6403 26.6648 25.6403H28.0536C28.0536 25.6403 27.7758 21.0433 27.7758 20.4861C27.7758 20.0682 28.1924 19.9289 28.6091 19.9289C29.0257 20.0682 33.331 20.904 33.331 20.904C33.331 20.904 33.0532 19.9289 32.9143 19.3717C32.6366 18.6752 32.9143 18.5359 33.1921 18.3966C33.331 18.2573 37.914 14.2175 37.914 14.2175L37.0807 13.9388C36.664 13.6602 36.8029 13.3816 36.8029 13.103C36.9418 12.8244 37.7751 10.0384 37.7751 10.0384C37.7751 10.0384 35.553 10.4563 35.1364 10.5956C34.8586 10.7349 34.7197 10.4563 34.5809 10.317C34.442 10.0384 33.8865 8.78462 33.8865 8.78462C33.8865 8.78462 31.5255 11.5707 31.3866 11.5707C30.97 11.8493 30.4145 11.5707 30.5534 11.1528C30.5534 10.7349 31.8033 5.30203 31.8033 5.30203C31.8033 5.30203 30.4145 6.13785 29.9979 6.27716C29.7201 6.55576 29.4423 6.55576 29.1646 5.99855C29.1646 5.58064 27.498 2.37666 27.498 2.37666ZM13.749 27.5906V0.287109H0V27.5906H13.749Z" fill="#FF0000"/>
</g>
<path d="M88.8467 11.4229H87.5968L87.319 10.1692C86.208 11.4229 85.3747 11.7015 83.9859 11.7015C80.6528 11.7015 78.7085 9.05473 78.7085 5.85075C78.5697 2.64677 80.514 0 83.8471 0C86.3469 0 88.2912 1.25373 88.569 3.76119H86.6246C86.4858 2.22886 85.097 1.53234 83.7082 1.53234C81.3472 1.53234 80.3751 3.62189 80.3751 5.85075C80.3751 7.9403 81.3472 10.1692 83.7082 10.1692C85.6525 10.1692 86.7635 9.05473 86.9024 7.10448H83.9859V5.57214H88.8467V11.4229ZM90.3744 7.38309C90.3744 4.87562 91.902 3.06468 94.4019 3.06468C96.9017 3.06468 98.4294 4.87562 98.4294 7.38309C98.4294 9.89055 96.9017 11.7015 94.4019 11.7015C91.902 11.7015 90.3744 9.89055 90.3744 7.38309ZM96.6239 7.38309C96.6239 5.99005 95.9295 4.59702 94.263 4.59702C92.5964 4.59702 91.902 5.99005 91.902 7.38309C91.902 8.77612 92.5964 10.3085 94.263 10.3085C95.9295 10.3085 96.6239 8.77612 96.6239 7.38309ZM99.1238 3.34328H101.068L103.151 9.61194L105.096 3.34328H106.901L104.123 11.4229H102.179L99.1238 3.34328V3.34328ZM109.401 7.801C109.401 9.05473 110.095 10.1692 111.623 10.1692C112.595 10.1692 113.289 9.75124 113.567 8.77612H115.234C114.817 10.5871 113.289 11.5622 111.623 11.5622C109.123 11.5622 107.734 9.75124 107.734 7.24378C107.734 4.87562 109.262 2.92537 111.623 2.92537C114.123 2.92537 115.789 5.29353 115.373 7.66169H109.401V7.801V7.801ZM113.567 6.68657C113.567 5.57214 112.734 4.59702 111.484 4.59702C110.234 4.59702 109.401 5.57214 109.401 6.68657H113.567V6.68657ZM116.761 3.34328H118.428V4.87562C118.567 4.0398 119.678 3.06468 120.789 3.06468C121.206 3.06468 121.344 3.06468 121.483 3.06468V4.73632C121.206 4.73632 120.928 4.59702 120.65 4.59702C119.4 4.59702 118.428 5.57214 118.428 7.38309V11.2836H116.622V3.34328H116.761V3.34328ZM122.594 3.34328H124.261V4.59702C124.816 3.76119 125.65 3.20398 126.761 3.20398C128.566 3.20398 129.677 4.17911 129.677 5.99005V11.5622H127.872V6.40796C127.872 5.15423 127.316 4.59702 126.344 4.59702C125.094 4.59702 124.4 5.57214 124.4 6.68657V11.4229H122.594V3.34328V3.34328ZM131.483 3.34328H133.149V4.45771C133.705 3.62189 134.399 3.06468 135.649 3.06468C136.621 3.06468 137.593 3.48259 137.871 4.45771C138.426 3.62189 139.26 3.06468 140.371 3.06468C142.037 3.06468 143.009 3.76119 143.009 5.85075V11.4229H141.204V6.68657C141.204 5.43284 141.065 4.45771 139.676 4.45771C138.426 4.45771 138.01 5.29353 138.01 6.68657V11.4229H136.204V6.26866C136.204 5.15423 135.927 4.59702 134.816 4.59702C133.843 4.59702 133.01 5.29353 133.01 6.68657V11.5622H131.205V3.34328H131.483V3.34328ZM146.481 7.801C146.481 9.05473 147.176 10.1692 148.704 10.1692C149.676 10.1692 150.37 9.75124 150.648 8.77612H152.314C151.898 10.5871 150.37 11.5622 148.704 11.5622C146.204 11.5622 144.815 9.75124 144.815 7.24378C144.815 4.87562 146.343 2.92537 148.704 2.92537C151.203 2.92537 152.87 5.29353 152.453 7.66169H146.481V7.801V7.801ZM150.648 6.68657C150.648 5.57214 149.815 4.59702 148.565 4.59702C147.315 4.59702 146.481 5.57214 146.481 6.68657H150.648ZM153.842 3.34328H155.509V4.59702C156.064 3.76119 156.897 3.20398 158.008 3.20398C159.814 3.20398 160.925 4.17911 160.925 5.99005V11.5622H159.119V6.40796C159.119 5.15423 158.564 4.59702 157.592 4.59702C156.342 4.59702 155.647 5.57214 155.647 6.68657V11.4229H153.842V3.34328V3.34328ZM162.036 3.34328H163.425V0.975125H165.23V3.34328H166.897V4.73632H165.23V9.05473C165.23 9.75124 165.23 10.1692 166.063 10.1692C166.341 10.1692 166.619 10.1692 166.758 10.1692V11.5622C166.341 11.5622 165.925 11.7015 165.647 11.7015C163.841 11.7015 163.425 11.005 163.425 9.61194V4.73632H162.036V3.34328V3.34328ZM78.4308 23.5423C78.4308 21.0348 79.9585 19.2239 82.4583 19.2239C85.097 19.2239 86.4858 21.0348 86.4858 23.5423C86.4858 26.0498 84.9581 27.8607 82.4583 27.8607C79.9585 27.8607 78.4308 26.0498 78.4308 23.5423ZM84.8192 23.5423C84.8192 22.1493 84.1248 20.7562 82.4583 20.7562C80.9306 20.7562 80.0973 22.1493 80.0973 23.5423C80.0973 24.9353 80.7917 26.4677 82.4583 26.4677C84.1248 26.4677 84.8192 24.9353 84.8192 23.5423ZM87.319 19.5025H88.7078V18.806C88.7078 16.7164 89.8189 16.4378 90.9299 16.4378C91.4854 16.4378 91.902 16.4378 92.1798 16.5771V17.9702C91.902 17.9702 91.7632 17.8308 91.3465 17.8308C90.9299 17.8308 90.5132 17.9702 90.5132 18.6667V19.5025H92.0409V20.8955H90.5132V27.7214H88.7078V20.8955H87.319V19.5025ZM105.096 19.9204C104.818 18.6667 103.985 17.6915 102.318 17.6915C99.957 17.6915 98.9849 19.7811 98.9849 22.01C98.9849 24.0995 99.957 26.3284 102.318 26.3284C103.985 26.3284 104.957 25.0746 105.096 23.403H107.04C106.901 26.0498 105.096 27.8607 102.318 27.8607C98.9849 27.8607 97.0406 25.2139 97.0406 22.01C97.0406 18.806 98.9849 16.1592 102.318 16.1592C104.818 16.1592 106.762 17.5522 107.04 19.9204H105.096ZM115.373 25.7711C115.373 26.1891 115.511 26.3284 115.789 26.3284C115.928 26.3284 116.067 26.3284 116.206 26.3284V27.5821C115.928 27.7214 115.373 27.7214 115.095 27.7214C114.4 27.7214 113.845 27.4428 113.706 26.7463C113.012 27.4428 111.901 27.7214 110.928 27.7214C109.54 27.7214 108.151 26.8856 108.151 25.3532C108.151 23.2637 109.817 22.9851 111.206 22.8458C112.456 22.5672 113.567 22.7065 113.567 21.7313C113.567 20.7562 112.595 20.6169 111.901 20.6169C110.928 20.6169 110.234 21.0348 110.095 21.8706H108.29C108.429 19.7811 110.234 19.2239 111.901 19.2239C113.428 19.2239 115.095 19.9204 115.095 21.592V25.7711H115.373V25.7711ZM113.706 23.5423C113.151 23.9602 112.317 23.8209 111.484 23.9602C110.651 24.0995 110.095 24.3781 110.095 25.3532C110.095 26.1891 111.067 26.3284 111.762 26.3284C112.595 26.3284 113.706 25.9104 113.706 24.796V23.5423V23.5423ZM117.317 19.5025H118.983V20.7562C119.539 19.9204 120.372 19.3632 121.483 19.3632C123.289 19.3632 124.4 20.3383 124.4 22.1493V27.7214H122.594V22.5672C122.594 21.3134 122.039 20.7562 121.067 20.7562C119.817 20.7562 119.122 21.7313 119.122 22.8458V27.5821H117.317V19.5025ZM132.871 25.7711C132.871 26.1891 133.01 26.3284 133.288 26.3284C133.427 26.3284 133.566 26.3284 133.705 26.3284V27.5821C133.427 27.7214 132.871 27.7214 132.594 27.7214C131.899 27.7214 131.344 27.4428 131.205 26.7463C130.51 27.4428 129.399 27.7214 128.427 27.7214C127.038 27.7214 125.65 26.8856 125.65 25.3532C125.65 23.2637 127.316 22.9851 128.705 22.8458C129.955 22.5672 131.066 22.7065 131.066 21.7313C131.066 20.7562 130.094 20.6169 129.399 20.6169C128.427 20.6169 127.733 21.0348 127.594 21.8706H125.789C125.927 19.7811 127.733 19.2239 129.399 19.2239C130.927 19.2239 132.594 19.9204 132.594 21.592V25.7711H132.871V25.7711ZM131.066 23.5423C130.51 23.9602 129.677 23.8209 128.844 23.9602C128.011 24.0995 127.455 24.3781 127.455 25.3532C127.455 26.1891 128.427 26.3284 129.122 26.3284C129.955 26.3284 131.066 25.9104 131.066 24.796V23.5423V23.5423ZM142.315 27.5821H140.649V26.4677C140.232 27.4428 139.121 27.7214 138.149 27.7214C135.649 27.7214 134.399 25.7711 134.399 23.403C134.399 20.4776 136.204 19.2239 137.871 19.2239C138.843 19.2239 139.954 19.6418 140.51 20.4776V16.2985H142.315V27.5821ZM138.426 26.4677C139.954 26.4677 140.649 25.0746 140.649 23.5423C140.649 21.7313 139.815 20.7562 138.426 20.7562C136.76 20.7562 136.204 22.2886 136.204 23.6816C136.204 25.0746 136.899 26.4677 138.426 26.4677ZM151.064 25.7711C151.064 26.1891 151.203 26.3284 151.481 26.3284C151.62 26.3284 151.759 26.3284 151.898 26.3284V27.5821C151.62 27.7214 151.064 27.7214 150.787 27.7214C150.092 27.7214 149.537 27.4428 149.398 26.7463C148.704 27.4428 147.592 27.7214 146.62 27.7214C145.232 27.7214 143.843 26.8856 143.843 25.3532C143.843 23.2637 145.509 22.9851 146.898 22.8458C148.148 22.5672 149.259 22.7065 149.259 21.7313C149.259 20.7562 148.287 20.6169 147.593 20.6169C146.62 20.6169 145.926 21.0348 145.787 21.8706H143.982C144.121 19.7811 145.926 19.2239 147.593 19.2239C149.12 19.2239 150.787 19.9204 150.787 21.592V25.7711H151.064V25.7711ZM149.259 23.5423C148.704 23.9602 147.87 23.8209 147.037 23.9602C146.204 24.0995 145.648 24.3781 145.648 25.3532C145.648 26.1891 146.62 26.3284 147.315 26.3284C148.148 26.3284 149.259 25.9104 149.259 24.796V23.5423V23.5423ZM201.2 11.4229H199.95L199.672 10.1692C198.561 11.4229 197.728 11.7015 196.339 11.7015C193.006 11.7015 191.062 9.05473 191.062 5.85075C191.062 2.64677 193.006 0 196.339 0C198.839 0 200.783 1.25373 201.061 3.76119H199.117C198.978 2.22886 197.589 1.53234 196.2 1.53234C193.839 1.53234 192.867 3.62189 192.867 5.85075C192.867 7.9403 193.839 10.1692 196.2 10.1692C198.144 10.1692 199.255 9.05473 199.394 7.10448H196.478V5.57214H201.2V11.4229V11.4229ZM202.866 7.38309C202.866 4.87562 204.394 3.06468 206.894 3.06468C209.394 3.06468 210.921 4.87562 210.921 7.38309C210.921 9.89055 209.394 11.7015 206.894 11.7015C204.394 11.7015 202.866 9.89055 202.866 7.38309ZM209.116 7.38309C209.116 5.99005 208.421 4.59702 206.755 4.59702C205.227 4.59702 204.394 5.99005 204.394 7.38309C204.394 8.77612 205.088 10.3085 206.755 10.3085C208.421 10.3085 209.116 8.77612 209.116 7.38309ZM219.532 11.4229H217.726V10.3085C217.31 11.1443 216.338 11.7015 215.365 11.7015C213.282 11.7015 212.31 10.5871 212.31 8.49751V3.34328H214.116V8.35821C214.116 9.75124 214.671 10.3085 215.643 10.3085C217.171 10.3085 217.587 9.33333 217.587 8.0796V3.34328H219.393L219.532 11.4229V11.4229ZM220.643 3.34328H222.587L224.67 9.61194L226.615 3.34328H228.42L225.504 11.4229H223.559L220.643 3.34328ZM230.642 7.801C230.642 9.05473 231.336 10.1692 232.864 10.1692C233.836 10.1692 234.531 9.75124 234.808 8.77612H236.475C236.058 10.5871 234.531 11.5622 232.864 11.5622C230.364 11.5622 228.976 9.75124 228.976 7.24378C228.976 4.87562 230.503 2.92537 232.864 2.92537C235.364 2.92537 237.031 5.29353 236.614 7.66169H230.642V7.801V7.801ZM234.808 6.68657C234.808 5.57214 233.975 4.59702 232.725 4.59702C231.475 4.59702 230.642 5.57214 230.642 6.68657H234.808ZM238.003 3.34328H239.669V4.87562C239.808 4.0398 240.919 3.06468 242.03 3.06468C242.447 3.06468 242.586 3.06468 242.725 3.06468V4.73632C242.447 4.73632 242.169 4.59702 241.891 4.59702C240.641 4.59702 239.669 5.57214 239.669 7.38309V11.2836H237.864L238.003 3.34328V3.34328ZM243.558 3.34328H245.224V4.59702C245.78 3.76119 246.613 3.20398 247.724 3.20398C249.53 3.20398 250.641 4.17911 250.641 5.99005V11.5622H248.835V6.40796C248.835 5.15423 248.28 4.59702 247.308 4.59702C246.058 4.59702 245.363 5.57214 245.363 6.68657V11.4229H243.558V3.34328V3.34328ZM253.974 7.801C253.974 9.05473 254.668 10.1692 256.196 10.1692C257.168 10.1692 257.862 9.75124 258.14 8.77612H259.807C259.39 10.5871 257.862 11.5622 256.196 11.5622C253.696 11.5622 252.307 9.75124 252.307 7.24378C252.307 4.87562 253.835 2.92537 256.196 2.92537C258.696 2.92537 260.362 5.29353 259.946 7.66169H253.974V7.801V7.801ZM258.14 6.68657C258.14 5.57214 257.307 4.59702 256.057 4.59702C254.807 4.59702 253.974 5.57214 253.974 6.68657H258.14ZM261.195 3.34328H262.862V4.45771C263.418 3.62189 264.112 3.06468 265.362 3.06468C266.334 3.06468 267.306 3.48259 267.584 4.45771C268.139 3.62189 268.973 3.06468 270.084 3.06468C271.75 3.06468 272.722 3.76119 272.722 5.85075V11.4229H270.917V6.68657C270.917 5.43284 270.778 4.45771 269.389 4.45771C268.139 4.45771 267.723 5.29353 267.723 6.68657V11.4229H265.917V6.26866C265.917 5.15423 265.64 4.59702 264.529 4.59702C263.556 4.59702 262.723 5.29353 262.723 6.68657V11.5622H260.918V3.34328H261.195V3.34328ZM276.194 7.801C276.194 9.05473 276.889 10.1692 278.416 10.1692C279.389 10.1692 280.083 9.75124 280.361 8.77612H282.027C281.611 10.5871 280.083 11.5622 278.416 11.5622C275.917 11.5622 274.528 9.75124 274.528 7.24378C274.528 4.87562 276.056 2.92537 278.416 2.92537C280.916 2.92537 282.583 5.29353 282.166 7.66169H276.194V7.801V7.801ZM280.361 6.68657C280.361 5.57214 279.527 4.59702 278.278 4.59702C277.028 4.59702 276.194 5.57214 276.194 6.68657H280.361ZM283.555 3.34328H285.222V4.59702C285.777 3.76119 286.61 3.20398 287.721 3.20398C289.527 3.20398 290.638 4.17911 290.638 5.99005V11.5622H288.832V6.40796C288.832 5.15423 288.277 4.59702 287.305 4.59702C286.055 4.59702 285.36 5.57214 285.36 6.68657V11.4229H283.555V3.34328V3.34328ZM291.61 3.34328H292.999V0.975125H294.804V3.34328H296.471V4.73632H294.804V9.05473C294.804 9.75124 294.804 10.1692 295.637 10.1692C295.915 10.1692 296.193 10.1692 296.332 10.1692V11.5622C295.915 11.5622 295.499 11.7015 295.221 11.7015C293.415 11.7015 292.999 11.005 292.999 9.61194V4.73632H291.61V3.34328ZM198.839 27.5821H197.172V26.4677C196.756 27.4428 195.645 27.7214 194.672 27.7214C192.173 27.7214 190.923 25.7711 190.923 23.403C190.923 20.4776 192.589 19.2239 194.395 19.2239C195.367 19.2239 196.478 19.6418 197.033 20.4776V16.2985H198.839V27.5821V27.5821ZM194.811 26.4677C196.339 26.4677 197.033 25.0746 197.033 23.5423C197.033 21.7313 196.2 20.7562 194.811 20.7562C193.145 20.7562 192.589 22.2886 192.589 23.6816C192.589 25.0746 193.284 26.4677 194.811 26.4677ZM207.866 27.5821H206.061V26.4677C205.644 27.3035 204.672 27.8607 203.7 27.8607C201.616 27.8607 200.644 26.7463 200.644 24.6567V19.5025H202.45V24.5174C202.45 25.9105 203.005 26.4677 203.977 26.4677C205.505 26.4677 205.922 25.4925 205.922 24.2388V19.5025H207.727V27.5821H207.866V27.5821ZM221.893 19.9204C221.615 18.6667 220.782 17.6915 219.115 17.6915C216.754 17.6915 215.782 19.7811 215.782 22.01C215.782 24.0995 216.754 26.3284 219.115 26.3284C220.921 26.3284 221.754 25.0746 221.893 23.403H223.837C223.698 26.0498 221.754 28 219.115 28C215.782 28 213.838 25.3532 213.838 22.1493C213.838 18.9453 215.782 16.2985 219.115 16.2985C221.615 16.2985 223.559 17.6915 223.837 20.0597H221.893V19.9204ZM232.031 25.7711C232.031 26.1891 232.17 26.3284 232.448 26.3284C232.586 26.3284 232.725 26.3284 232.864 26.3284V27.5821C232.586 27.7214 232.031 27.7214 231.753 27.7214C231.059 27.7214 230.503 27.4428 230.364 26.7463C229.67 27.4428 228.559 27.7214 227.587 27.7214C226.198 27.7214 224.809 26.8856 224.809 25.3532C224.809 23.2637 226.476 22.9851 227.865 22.8458C229.114 22.5672 230.225 22.7065 230.225 21.7313C230.225 20.7562 229.253 20.6169 228.559 20.6169C227.587 20.6169 226.892 21.0348 226.753 21.8706H224.948C225.087 19.7811 226.892 19.2239 228.559 19.2239C230.087 19.2239 231.753 19.9204 231.753 21.592V25.7711H232.031V25.7711ZM230.225 23.5423C229.67 23.9602 228.837 23.8209 228.003 23.9602C227.17 24.0995 226.615 24.3781 226.615 25.3532C226.615 26.1891 227.587 26.3284 228.281 26.3284C229.114 26.3284 230.225 25.9104 230.225 24.796V23.5423ZM234.114 19.5025H235.781V20.7562C236.336 19.9204 237.169 19.3632 238.28 19.3632C240.086 19.3632 241.197 20.3383 241.197 22.1493V27.7214H239.391V22.5672C239.391 21.3134 238.836 20.7562 237.864 20.7562C236.614 20.7562 235.919 21.7313 235.919 22.8458V27.5821H234.114V19.5025V19.5025ZM249.53 25.7711C249.53 26.1891 249.669 26.3284 249.946 26.3284C250.085 26.3284 250.224 26.3284 250.363 26.3284V27.5821C250.085 27.7214 249.53 27.7214 249.252 27.7214C248.557 27.7214 248.002 27.4428 247.863 26.7463C247.169 27.4428 246.058 27.7214 245.086 27.7214C243.697 27.7214 242.308 26.8856 242.308 25.3532C242.308 23.2637 243.974 22.9851 245.363 22.8458C246.613 22.5672 247.724 22.7065 247.724 21.7313C247.724 20.7562 246.752 20.6169 246.058 20.6169C245.086 20.6169 244.391 21.0348 244.252 21.8706H242.447C242.586 19.7811 244.391 19.2239 246.058 19.2239C247.585 19.2239 249.252 19.9204 249.252 21.592V25.7711H249.53V25.7711ZM247.724 23.5423C247.169 23.9602 246.335 23.8209 245.502 23.9602C244.669 24.0995 244.113 24.3781 244.113 25.3532C244.113 26.1891 245.086 26.3284 245.78 26.3284C246.613 26.3284 247.724 25.9104 247.724 24.796V23.5423ZM259.112 27.5821H257.446V26.4677C257.029 27.4428 255.918 27.7214 254.946 27.7214C252.446 27.7214 251.196 25.7711 251.196 23.403C251.196 20.4776 253.002 19.2239 254.668 19.2239C255.64 19.2239 256.751 19.6418 257.307 20.4776V16.2985H259.112V27.5821V27.5821ZM255.085 26.4677C256.612 26.4677 257.307 25.0746 257.307 23.5423C257.307 21.7313 256.474 20.7562 255.085 20.7562C253.418 20.7562 252.863 22.2886 252.863 23.6816C252.863 25.0746 253.557 26.4677 255.085 26.4677ZM267.723 25.7711C267.723 26.1891 267.862 26.3284 268.139 26.3284C268.278 26.3284 268.417 26.3284 268.556 26.3284V27.5821C268.278 27.7214 267.723 27.7214 267.445 27.7214C266.751 27.7214 266.195 27.4428 266.056 26.7463C265.362 27.4428 264.251 27.7214 263.279 27.7214C261.89 27.7214 260.501 26.8856 260.501 25.3532C260.501 23.2637 262.168 22.9851 263.556 22.8458C264.806 22.5672 265.917 22.7065 265.917 21.7313C265.917 20.7562 264.945 20.6169 264.251 20.6169C263.279 20.6169 262.584 21.0348 262.445 21.8706H260.64C260.779 19.7811 262.584 19.2239 264.251 19.2239C265.778 19.2239 267.445 19.9204 267.445 21.592V25.7711H267.723V25.7711ZM265.917 23.5423C265.362 23.9602 264.529 23.8209 263.695 23.9602C262.862 24.0995 262.306 24.3781 262.306 25.3532C262.306 26.1891 263.279 26.3284 263.973 26.3284C264.806 26.3284 265.917 25.9104 265.917 24.796V23.5423Z" fill="white"/>
<defs>
<clipPath id="clip0_958_3471">
<rect width="54.8572" height="27.2" fill="white" transform="translate(0 0.287109)"/>
</clipPath>
</defs>
</svg>
